<?xml version="1.0" encoding="UTF-8" standalone="no"?>
<!-- Created with Inkscape (http://www.inkscape.org/) -->

<svg
   xmlns:dc="http://purl.org/dc/elements/1.1/"
   xmlns:cc="http://creativecommons.org/ns#"
   xmlns:rdf="http://www.w3.org/1999/02/22-rdf-syntax-ns#"
   xmlns:svg="http://www.w3.org/2000/svg"
   xmlns="http://www.w3.org/2000/svg"
   xmlns:sodipodi="http://sodipodi.sourceforge.net/DTD/sodipodi-0.dtd"
   xmlns:inkscape="http://www.inkscape.org/namespaces/inkscape"
   width="200"
   height="200"
   id="svg2986"
   version="1.1"
   inkscape:version="0.48.5 r10040"
   sodipodi:docname="icon.svg"
   inkscape:export-filename="/home/brice/Projets/ekylibre/graphism/projects/HD.png"
   inkscape:export-xdpi="180"
   inkscape:export-ydpi="180">
  <defs
     id="defs2988" />
  <sodipodi:namedview
     id="base"
     pagecolor="#ffffff"
     bordercolor="#666666"
     borderopacity="1.0"
     inkscape:pageopacity="0.0"
     inkscape:pageshadow="2"
     inkscape:zoom="1.979899"
     inkscape:cx="-86.032692"
     inkscape:cy="56.927435"
     inkscape:document-units="px"
     inkscape:current-layer="layer1"
     showgrid="false"
     borderlayer="true"
     inkscape:showpageshadow="false"
     inkscape:window-width="1920"
     inkscape:window-height="1057"
     inkscape:window-x="0"
     inkscape:window-y="0"
     inkscape:window-maximized="1"
     showguides="true"
     inkscape:guide-bbox="true"
     fit-margin-top="0"
     fit-margin-left="0"
     fit-margin-right="0"
     fit-margin-bottom="0">
    <sodipodi:guide
       orientation="1,0"
       position="100,-300"
       id="guide4426" />
    <sodipodi:guide
       orientation="0,1"
       position="-40,99.999997"
       id="guide4430" />
  </sodipodi:namedview>
  <metadata
     id="metadata2991">
    <rdf:RDF>
      <cc:Work
         rdf:about="">
        <dc:format>image/svg+xml</dc:format>
        <dc:type
           rdf:resource="http://purl.org/dc/dcmitype/StillImage" />
        <dc:title />
      </cc:Work>
    </rdf:RDF>
  </metadata>
  <g
     inkscape:label="Calque 1"
     inkscape:groupmode="layer"
     id="layer1"
     transform="translate(-40,-552.36219)">
    <path
       id="path3061"
       d="m 119.79799,555.36218 c 0,0 3.7318,7.38836 1.8706,9.89815 -3.3182,4.46495 -16.3936,4.46495 -16.3936,4.46495 l 5.8562,8.60096 c 0,0 17.2866,-3.04558 20.0878,-8.86413 2.5474,-5.3204 -11.421,-14.09993 -11.421,-14.09993 z m -59.041391,0.52641 c 0,0 -13.968399,1.80479 -12.972,12.24814 0.9306,9.63493 22.945399,10.97914 22.945399,10.97914 1.7202,-3.08321 3.515601,-6.956 5.9408,-10.03916 0,0 -16.779,1.73898 -18.987999,-4.20178 -2.3124,-6.20395 3.0738,-8.98634 3.0738,-8.98634 z m 30.089399,12.0037 c -3.3652,0.01 -6.6458,-2.24656 -9.8794,-1.32537 -7.698599,10.09554 -12.7746,22.55049 -17.719,34.01841 6.298,9.74773 10.650201,16.41229 10.716001,24.77826 0,0 -7.830201,8.37534 -7.021801,12.72752 1.043401,5.5554 10.1332,10.12376 10.1332,10.12376 8.5634,0.95881 17.108,1.93642 27.024992,0.15979 0,0 8.8924,-6.42955 8.9582,-10.02034 0.0846,-4.59659 -6.95599,-12.99073 -6.95599,-12.99073 0.91179,-8.22495 7.67039,-15.66032 12.5208,-23.88528 -3.13961,-11.11074 -8.47881,-23.53743 -17.37121,-34.38498 -3.581393,-1.51339 -7.031193,0.78017 -10.405792,0.79896 z M 124.31,578.50487 c -5.32981,-0.0187 -11.8722,2.71656 -11.8722,2.71656 4.99139,9.19315 4.45559,9.50338 10.51859,13.18811 6.06301,3.6848 14.04361,1.05283 14.04361,1.05283 0,0 -2.75421,-12.25756 -8.04641,-15.82013 -1.222,-0.82718 -2.867,-1.13737 -4.64359,-1.13737 z m -67.877401,0.35719 c -1.4664,-0.01 -2.8952,0.22561 -4.23,0.78018 C 46.7788,582.25546 43,597.51155 43,597.51155 c 0,0 11.232999,1.35358 15.782599,-1.31601 4.7376,-2.78234 10.518599,-13.66753 10.518599,-13.66753 -3.6566,-1.54155 -8.459999,-3.64715 -12.868599,-3.66595 z m 17.6062,18.3863 c 0,0 4.276999,-0.9306 7.623399,1.05278 2.0586,1.21257 1.2126,6.30737 1.2126,6.30737 0,0 -6.476599,0.564 -8.309599,-1.57919 -1.767201,-2.06801 -0.5264,-5.78096 -0.5264,-5.78096 z m 32.072791,0.52636 c 0,0 0.9494,3.76001 -1.833,6.0442 -1.9928,1.63556 -6.843192,0.78959 -6.843192,0.78959 0,0 -0.658001,-4.16419 2.105593,-6.30737 2.631999,-2.04918 6.570599,-0.52642 6.570599,-0.52642 z m -4.3616,33.55785 c 0,0 4.3992,1.35359 3.7036,4.21115 -0.6392,2.6508 -4.277,5.17939 -6.946593,4.47439 -1.7296,-0.46058 -1.2126,-2.0398 -0.564,-3.68479 0.6204,-1.58857 2.302993,0.094 3.280593,-1.31596 1.0622,-1.5134 0.5264,-3.68479 0.5264,-3.68479 z m -24.298991,-0.85539 c 0,0 0.0094,3.02678 1.0528,4.54018 0.968199,1.40996 2.857599,-0.0187 3.477999,1.57918 0.6298,1.64498 0.902399,3.22417 -0.799,3.67537 -2.631999,0.7144 -6.203999,-1.8142 -6.8338,-4.46496 -0.6862,-2.84819 3.102001,-5.32977 3.102001,-5.32977 z"
       inkscape:connector-curvature="0"
       style="fill:#811b00;fill-opacity:1" />
    <path
       id="path3111"
       d="m 104.3914,655.3622 c 0,0 -14.7768,7.3132 -18.3676,13.43259 -3.5908,6.11002 -1.3724,25.38942 -1.3724,25.38942 0,0 15.7168,-14.00601 18.6402,-20.09723 2.9234,-6.08179 1.0998,-18.72478 1.0998,-18.72478 z m 23.2368,0.15041 c -5.0666,-0.009 -10.8852,0.45118 -13.9214,2.31236 -6.0724,3.73183 -7.6704,16.52523 -7.6704,16.52523 0,0 13.3198,2.99858 18.9034,-0.7896 5.593,-3.78819 12.0602,-17.56863 12.0602,-17.56863 0,0 -4.3052,-0.47936 -9.3718,-0.47936 z m -47.6298,5.19818 c 0,0 -1.7108,11.44919 -2.162,16.91059 0,0 -11.0074,6.75863 -13.7898,13.51722 -2.773,6.74921 0.6016,24.65621 0.6016,24.65621 0,0 13.8556,-10.92284 16.4406,-18.10443 2.585,-7.17218 -1.0904,-22.18398 -1.0904,-22.18398 l 0,-14.79561 z m 29.845,16.39362 c -1.5228,0 -3.008,0.18797 -4.3616,0.658 -7.1722,2.48157 -18.6308,18.6214 -18.6308,18.6214 0,0 16.8354,2.37819 23.2932,-0.7332 6.4484,-3.12081 13.6958,-15.00243 13.6958,-15.00243 0,0 -7.379,-3.54377 -13.9966,-3.54377 z m -48.2126,1.96457 -5.3486,23.0018 c 0,0 -6.2698,4.26759 -10.8194,11.88161 -4.4086,7.3884 2.1996,23.34022 2.1996,24.393 0,0 13.3856,-12.72758 13.9684,-19.6648 0.329,-3.84459 -1.786,-10.09559 -2.0962,-17.47462 -0.3196,-7.38836 1.1656,-15.89537 2.0962,-22.13699 z M 92.397,700.7266 c -3.4592,0.0283 -6.58,0.45119 -8.5634,0.90237 -6.7774,3.01743 -16.9858,17.56863 -16.9858,17.56863 0,0 17.3242,3.27118 23.2932,0.52639 5.969,-2.74479 11.6466,-13.92139 11.6466,-13.92139 l 20.4168,-3.44043 c 0,0 -12.6618,0 -17.8506,0.3666 -3.666,-1.54156 -8.0276,-2.03039 -11.9568,-2.00217 z m -22.8138,12.54899 c 0,0 -13.4796,16.79778 -17.1738,21.99601 C 48.7152,740.46978 43,749.36219 43,749.36219 l 3.384,0 c 0,0 3.6472,-8.14041 6.768,-13.32921 3.1302,-5.1888 16.4312,-22.75739 16.4312,-22.75739 z m 1.3724,9.09918 c -1.8518,0.009 -3.5626,0.22561 -4.935,0.76142 -6.7586,2.61319 -14.523,18.09501 -14.523,18.09501 0,0 15.3972,1.78598 21.9208,-0.7896 6.5236,-2.57562 13.3668,-12.99079 13.3668,-12.99079 4.7376,-0.32904 13.4138,-1.94581 15.886,-1.95523 l -0.47,0 -14.5324,0 c 0,0 -9.4564,-3.15837 -16.7132,-3.12081 z"
       inkscape:connector-curvature="0"
       style="fill:#ffcc06;fill-opacity:1" />
    <path
       id="path3161"
       d="M 190.48892,656.2595 158.39202,676.34158 143,714.55906 l 8.66481,0 0,32.80313 25.93103,0 0,-32.12407 26.0759,0 0,32.12407 25.27008,0 0,-32.80313 8.05818,0 -14.82161,-38.23558 -31.68947,-20.06398 z m -6.54613,26.55579 12.90214,0 0,13.26431 -12.90214,0 0,-13.26431 z"
       inkscape:connector-curvature="0"
       style="fill:#00469f;fill-opacity:1" />
    <path
       id="path3250"
       d="m 190,555.36219 -47,19.9374 47,20.2664 47,-20.2664 -47,-19.9374 z m -29.469,30.4372 -17.531,7.4354 47,20.2664 47,-20.2664 -17.531,-7.4354 -29.469,12.7088 -29.469,-12.7088 z m 0,17.9258 -17.531,7.4354 47,20.2664 47,-20.2664 -17.531,-7.4354 -29.469,12.7088 -29.469,-12.7088 z m 0,17.9352 -17.531,7.4354 47,20.2664 47,-20.2664 -17.531,-7.4354 -29.469,12.7088 -29.469,-12.7088 z"
       inkscape:connector-curvature="0"
       style="fill:#009f3f;fill-opacity:1" />
  </g>
</svg>
