<?xml version="1.0" encoding="utf-8"?>
<!-- Generator: Adobe Illustrator 23.0.0, SVG Export Plug-In . SVG Version: 6.00 Build 0)  -->
<svg version="1.1" id="Calque_1" xmlns="http://www.w3.org/2000/svg" xmlns:xlink="http://www.w3.org/1999/xlink" x="0px" y="0px"
	 viewBox="0 0 500 500" style="enable-background:new 0 0 500 500;" xml:space="preserve">
<style type="text/css">
	.st0{fill:none;}
	.st1{fill-rule:evenodd;clip-rule:evenodd;fill:#D2D2D2;}
	.st2{fill-rule:evenodd;clip-rule:evenodd;fill:#888888;}
	.st3{fill-rule:evenodd;clip-rule:evenodd;fill:#B5B5B5;}
	.st4{fill-rule:evenodd;clip-rule:evenodd;fill:#A0A0A0;}
	.st5{fill:#B5B5B5;}
	.st6{opacity:0.3;fill:#515354;}
	.st7{opacity:0.6;fill-rule:evenodd;clip-rule:evenodd;fill:#515354;}
	.st8{fill-rule:evenodd;clip-rule:evenodd;fill:#161616;}
	.st9{fill-rule:evenodd;clip-rule:evenodd;fill:#2B2B2B;}
	.st10{fill-rule:evenodd;clip-rule:evenodd;fill:#C4C4C4;}
	.st11{fill-rule:evenodd;clip-rule:evenodd;fill:#939393;}
	.st12{opacity:0.1;}
	.st13{fill-rule:evenodd;clip-rule:evenodd;fill:#FFFFFF;}
	.st14{fill:#575756;}
	.st15{fill:#282828;}
	.st16{fill:#DADADA;}
	.st17{fill:#B2B2B2;}
	.st18{fill:#9D9D9C;}
	.st19{fill:#1D1D1B;}
</style>
<g>
	<circle class="st0" cx="250" cy="250" r="250"/>
	<g>
		<g>
			<path class="st1" d="M234.4218597,331.1946716c4.6773071-2.7009583,8.4672394-9.8630676,8.4672394-16.0003052V298.748291
				l0.9466705-0.5454407v16.6410828c0,6.7240295-4.090332,14.5355835-9.1354218,17.4477234l-23.4376831,13.5339355v-1.2580261
				L234.4218597,331.1946716z"/>
			<path class="st2" d="M282.6869507,359.0670776c4.6773376-2.6977539,8.4672852-9.8630676,8.4672852-16.0001526V326.621521
				l0.9466553-0.5469055v16.6417236c0,6.7240295-4.09198,14.5371704-9.1338196,17.4493103l-23.440918,13.5325012v-1.2581787
				L282.6869507,359.0670776z"/>
			<path class="st3" d="M242.8890991,298.748291v16.4460754c0,6.1372375-3.7899323,13.2993469-8.4672394,16.0003052
				l-23.1591949,13.3728943l48.2634888,27.872406l23.1607971-13.3728943
				c4.6773376-2.6977539,8.4672852-9.8630676,8.4672852-16.0001526V326.621521L242.8890991,298.748291z"/>
			<polygon class="st4" points="259.5261536,373.6981506 259.5261536,372.4399719 211.2626648,344.5675659 211.2626648,345.825592 
							"/>
			<path class="st5" d="M234.4218597,331.1946716l-23.1591949,13.3728943l48.2634888,27.872406l23.1607971-13.3728943
				c4.6773376-2.6977539,8.4672852-9.8630676,8.4672852-16.0001526v-5.7428894l-48.3308411-20.7572327
				C242.319458,322.3643494,238.7532196,328.6940002,234.4218597,331.1946716z"/>
			<path class="st5" d="M242.8890991,298.748291v16.4460754c0,0.4523621-0.0266113,0.9107971-0.0657043,1.3724365
				l48.3308411,20.7572327V326.621521L242.8890991,298.748291z"/>
			<path class="st6" d="M242.8890991,298.748291v16.4460754c0,0.4523621-0.0266113,0.9107971-0.0657043,1.3724365
				l48.3308411,20.7572327V326.621521L242.8890991,298.748291z"/>
			<polygon class="st7" points="292.1008911,336.7794189 291.1542358,337.3240356 291.1542358,326.621521 292.1008911,326.0746155 
							"/>
		</g>
		<g>
			<path class="st8" d="M400.6504822,177.8414154l-119.4141541-68.9441528L154.109375,35.5012436
				c-1.25177-0.7228279-2.3737488-0.7401352-3.1390381-0.1916428c-0.1142426,0.0507965-9.3669586,5.4236984-9.4655151,5.4948425
				c-0.8465271,0.3927422-1.3785095,1.3535194-1.3785095,2.7688942v177.6102295l0,0v19.2205811
				c0,2.6649017,1.8824615,5.9103394,4.2062073,7.2529602L390.875061,389.9987183
				c1.2503052,0.7197876,2.3690796,0.738678,3.1404724,0.1910095c0.1095886-0.0501709,9.3623047-5.4229126,9.4624634-5.49646
				c0.8451233-0.3927307,1.380127-1.3520813,1.380127-2.7674561V185.0958252
				C404.8581238,182.4301147,402.9742126,179.1840363,400.6504822,177.8414154z"/>
			<path class="st9" d="M395.0812683,387.6022034c0,2.6657104-1.8824768,3.7391357-4.2062073,2.3965149L144.3325195,247.6571045
				c-2.3237457-1.3426208-4.2062073-4.5880585-4.2062073-7.2529602V43.5733376c0-2.6641006,1.8824615-3.7367249,4.2062073-2.3949013
				L390.8734436,183.52005c2.3253479,1.3410187,4.2078247,4.5880585,4.2078247,7.2529602V387.6022034z"/>
			<polygon class="st1" points="386.4576416,353.5135803 148.749939,216.2732697 148.749939,53.6187477 386.4576416,190.8590546 			
				"/>
			<path class="st10" d="M140.1263123,221.1835632v19.2205811c0,2.6649017,1.8824615,5.9103394,4.2062073,7.2529602
				L390.875061,389.9987183c2.3237305,1.3426208,4.2062073,0.2691956,4.2062073-2.3965149v-19.2197571L140.1263123,221.1835632z"/>
			<path class="st9" d="M271.4595337,309.032135c-0.0016174-2.442627-1.7261047-5.4188843-3.8574219-6.6488647
				c-2.1281128-1.2299805-3.8556213-0.2472229-3.8556213,2.1954041c0,2.4426575,1.7275085,5.4205017,3.8556213,6.6488647
				C269.733429,312.4575195,271.4579163,311.4747925,271.4595337,309.032135z"/>
			<path class="st11" d="M395.0796509,368.3808289l0.0016174,0.0016174v19.2197571
				c0,1.229187-0.4038086,2.1148071-1.0657349,2.5875244c0.1315613-0.0658569,9.3623047-5.4229126,9.4624634-5.49646
				c0.8451233-0.3927307,1.380127-1.3520813,1.380127-2.7674561v-19.1923523L395.0796509,368.3808289z"/>
			<g class="st12">
				<path class="st13" d="M395.0812683,387.6022034c0,2.6657104-1.8824768,3.7391357-4.2062073,2.3965149l-170.3236237-98.3359375
					l50.9064789-177.086731L390.8734436,183.52005c2.3253479,1.3410187,4.2078247,4.5880585,4.2078247,7.2529602V387.6022034z"/>
			</g>
		</g>
	</g>
	<g>
		<path class="st14" d="M349.7780457,450.2095337c-0.0212097-0.0106812-1.2514343-0.725769-1.272644-0.7398987
			c-2.5950928-1.6286621-11.8210449,1.3841248-22.8048096,7.7248535
			c-12.9945374,7.5053711-23.530426,16.8233643-23.530426,20.8240051c0,0.230011,0.0353394,0.4246826,0.1025696,0.5805664
			c0,0,1.3275757,0.7611389,1.3364563,0.7789001l1.2851562-0.7399292c-0.1894226-0.134491-0.2972717-0.3434753-0.3291626-0.6266174
			c-0.0018311-0.0106812-0.0018311-0.0141296-0.0036316-0.0248413c-0.0018311-0.0460205-0.005249-0.0920715-0.005249-0.1381226
			c0-3.4764099,10.0649719-12.1041565,22.4807129-19.2732849c9.5924377-5.5370178,17.7793274-8.5816956,21.0099792-8.082489
			c0.090271,0.1770935,0.1379395,0.3824463,0.1379395,0.6161194c0,0.049469-0.0018005,0.0991516-0.007019,0.1486206
			c0,0.0107117-0.0018311,0.0212097-0.0018311,0.0282898c-0.0317688,0.3186646-0.1416016,0.6550598-0.3273926,1.0020142
			c0,0,1.3540344,0.7433472,1.3364563,0.7786865l1.2796936-0.7398987c0.0690613-0.2407227,0.1046143-0.4743652,0.1046143-0.7043762
			C350.569458,450.9742737,350.2932434,450.5068054,349.7780457,450.2095337z"/>
		<path class="st15" d="M347.9638062,450.2307434c-0.0849915-0.0638123-5.7141418-3.2960815-5.8221741-3.3455505
			c-2.1682434-1.5860596-11.1871643,1.4868774-21.9833069,7.721405
			c-12.4194336,7.1689453-22.4844055,15.7966919-22.4844055,19.2696838c0,0.3717651,0.1169128,0.6336975,0.3364258,0.7930298
			c0,0,6.0326233,3.4517822,6.1140137,3.5119629l44.2926025-25.5714417
			c0.2211304-0.4141846,0.3362427-0.8071899,0.3362427-1.1789551
			C348.7532043,450.8573608,348.4787903,450.4607544,347.9638062,450.2307434z"/>
		<path class="st16" d="M349.5975037,450.1174622l-24.2828369-14.0159607
			c-2.442688-1.7843323-11.7695618,1.221344-22.9055786,7.6505432
			c-12.9963684,7.5053711-23.5322571,16.8304443-23.5322571,20.8274536c0,0.2301941,0.0353394,0.4248657,0.1044006,0.584198
			l24.6279602,14.2142639l1.2851562-0.7399292c-0.1894226-0.134491-0.2972717-0.3434753-0.3291626-0.6266174
			c-0.0018311-0.0106812-0.0018311-0.0141296-0.0036316-0.0248413c-0.0018311-0.0460205-0.005249-0.0920715-0.005249-0.1381226
			c0-3.4764099,10.0649719-12.1041565,22.4807129-19.2732849c12.417572-7.1690979,22.4827271-10.1641235,22.4827271-6.6911316
			c0,0.3717651-0.1150818,0.7681885-0.3345947,1.182373l-0.0726929,0.0389709l0,0l1.3523865-0.7788696
			c0.0690613-0.2407227,0.1046143-0.4743652,0.1046143-0.7043762
			C350.569458,450.9034119,350.2277527,450.4078369,349.5975037,450.1174622z"/>
		<path class="st17" d="M327.0370178,457.9663086c-12.9963074,7.5053711-23.530426,16.8304138-23.5322266,20.8274536
			c0.0018005,0.2301941,0.0372009,0.4248657,0.1044006,0.584198l1.2851562-0.7399292
			c-0.1894226-0.134491-0.2972717-0.3434753-0.3291626-0.6266174c-0.0018311-0.0106812-0.0018311-0.0141296-0.0036316-0.0248413
			c-0.0018311-0.0460205-0.005249-0.0920715-0.005249-0.1381226c0-3.4764099,10.0649719-12.1041565,22.4807129-19.2732849
			c12.417572-7.1690979,22.4827271-10.1641235,22.4827271-6.6911316c0,0.0494995,0,0.0991516-0.0072327,0.1486511
			c0,0.0106812-0.0016479,0.0213928-0.0016479,0.0284424c-0.0300903,0.3184814-0.1399231,0.6549072-0.3257141,1.0052795
			l-0.0726929,0.0389709l0,0l1.3523865-0.7788696c0.0690613-0.2407227,0.1046143-0.4743652,0.1046143-0.7043762
			C350.569458,447.6250916,340.0351868,450.464386,327.0370178,457.9663086z"/>
		<path class="st17" d="M316.984436,446.6585999c8.6418152-4.425354,15.5276184-6.3760986,17.8059082-5.0838623l1.1593628,0.6619568
			c-2.2799072-1.2885742-9.1657104,0.6656189-17.8057861,5.0874939L316.984436,446.6585999z"/>
	</g>
	<g>
		<path class="st16" d="M299.730896,408.0552979L299.730896,408.0552979L299.730896,408.0552979
			c-0.1185303-0.0884705-0.2425232-0.1593323-0.3770142-0.2195129l-153.237793-88.4061279
			c-0.6585236-0.4248962-1.5965576-0.3877258-2.6409912,0.2140503c-1.9986115,1.1559143-3.6218109,3.9528198-3.6218109,6.2486877
			c0,1.182373,0.4337616,2.0020447,1.125824,2.3578491l153.4272308,88.5071106
			c0.0070496,0.0036011,0.010498,0.0070496,0.0140991,0.0106812l0,0l0,0
			c0.6549072,0.3681335,1.5594177,0.3114014,2.5578003-0.265564c2.0002441-1.1577148,3.6234436-3.9545898,3.6234436-6.2486572
			C300.6016846,409.2200928,300.272522,408.4660339,299.730896,408.0552979z"/>
		<g>
			<path class="st18" d="M294.4081726,411.5070801c0.0229797-0.5698853-0.3417358-1.1577454-1.1082764-1.6001892
				l-148.035202-85.4695129c-1.4551697-0.8374329-3.7916412-0.8638916-5.1937103-0.0549011l-56.0213852,32.3439331
				c-0.7098236,0.4089355-1.0460663,0.9577942-1.0177917,1.5083008c0,0.0175781,0,1.0230408,0,1.0390015
				c0.0034409,0.5541077,0.3752136,1.1151123,1.1169434,1.5452576l148.0335388,85.467865
				c1.453186,0.8356323,3.795105,0.86026,5.1953583,0.0531006l56.0213928-30.2269897
				c0.725769-0.4212341,1.0549316-0.9840698,1.0091248-1.5505066
				C294.4097595,414.5127563,294.4133911,411.5601807,294.4081726,411.5070801z"/>
			<path class="st16" d="M237.377655,445.2494812c-1.4002533,0.8073425-3.7421722,0.7825012-5.1953583-0.0565796
				L84.1487503,359.7250671c-1.4549942-0.8406982-1.5010376-2.1896667-0.0991516-2.9986572l56.0213852-32.3439331
				c1.4020691-0.8089905,3.7385406-0.7825317,5.1937103,0.0549011l148.035202,85.4695129
				c1.4533386,0.8390503,1.5011902,2.1914673,0.0991516,2.9986267L237.377655,445.2494812z"/>
			<g>
				<path class="st19" d="M148.8721924,345.8932495c-0.661972,0.3841248-1.7558899,0.3716125-2.4427032-0.0248108
					l-6.5725708-3.7952881c-0.6849976-0.3964233-0.7063904-1.0301208-0.046051-1.412384l6.3264313-3.6482849
					c0.6621552-0.3824768,1.7542572-0.3717651,2.4428711,0.0264587l6.5689697,3.7916565
					c0.6886139,0.4000549,0.7098236,1.030304,0.0478516,1.4107666L148.8721924,345.8932495z"/>
				<path class="st19" d="M138.7753143,340.0658569c-0.661972,0.3788452-1.7595062,0.3683167-2.4428711-0.0282898
					l-6.5723724-3.7950745c-0.6886444-0.3966064-0.7082214-1.0268555-0.0460663-1.4091492l6.3246155-3.6500854
					c0.6621399-0.3822937,1.756073-0.3734131,2.4428711,0.0248413l6.5707703,3.7952576
					c0.6886139,0.3964233,0.7080078,1.0248718,0.0460358,1.4107666L138.7753143,340.0658569z"/>
				<path class="st19" d="M169.0624847,357.5531616c-0.6567078,0.3822937-1.7524414,0.3717651-2.4410553-0.0282898
					l-6.5689545-3.791626c-0.6867828-0.3966064-0.7063904-1.0266724-0.0496674-1.4109497l6.3284149-3.6517334
					c0.6620026-0.3822632,1.7577057-0.3681335,2.442688,0.0282898l6.5689697,3.7916565
					c0.6904297,0.3966064,0.7081909,1.0284729,0.0478516,1.4107666L169.0624847,357.5531616z"/>
				<path class="st19" d="M158.9674225,351.7223206c-0.6621094,0.3840942-1.7542572,0.3717651-2.4410553-0.0248413
					l-6.5707703-3.795105c-0.6886139-0.3966064-0.7116089-1.0284729-0.0478516-1.4091187l6.3229828-3.6535339
					c0.6637878-0.3806458,1.7558899-0.3681641,2.4463196,0.0282593l6.5725861,3.7934875
					c0.6850281,0.3964233,0.706192,1.0284729,0.0424042,1.4107666L158.9674225,351.7223206z"/>
				<path class="st19" d="M189.3305511,369.2502136c-0.6619415,0.3859253-1.7540741,0.3752136-2.4427032-0.0248108
					l-6.5725708-3.7941895c-0.6849976-0.3966064-0.7097931-1.0285034-0.0478516-1.4091492l6.3265991-3.6526184
					c0.661972-0.3822937,1.7577057-0.3681641,2.4445038,0.0282593l6.5725861,3.7943726
					c0.6850281,0.3948059,0.7043915,1.0248718,0.0424194,1.4107666L189.3305511,369.2502136z"/>
				<path class="st19" d="M179.2318573,363.4238892c-0.6601562,0.3822937-1.7540741,0.3699646-2.442688-0.0284424
					l-6.5673218-3.7941895c-0.6920624-0.3948059-0.7098236-1.0285034-0.0494843-1.4091492l6.3264313-3.6499023
					c0.6603394-0.3858948,1.7560577-0.3717651,2.4410553,0.0246582l6.5707703,3.793457
					c0.6867981,0.3966064,0.7080078,1.030304,0.0478516,1.4107666L179.2318573,363.4238892z"/>
				<path class="st19" d="M209.5244751,380.9119263c-0.6621552,0.3822937-1.756073,0.3717651-2.4428711-0.0282593
					l-6.5707703-3.7916565c-0.6886292-0.3966064-0.7080231-1.030304-0.0478668-1.4091492l6.3247986-3.6535339
					c0.661972-0.3822632,1.7558899-0.3681335,2.4427032,0.0248413l6.5691376,3.795105
					c0.6920624,0.4000549,0.7098236,1.030304,0.0494843,1.4091187L209.5244751,380.9119263z"/>
				<path class="st19" d="M199.4257812,375.0810852c-0.6585236,0.3822632-1.7560577,0.3717651-2.4428711-0.0248413
					l-6.5689545-3.795105c-0.6867676-0.3966064-0.7080078-1.0266724-0.0460358-1.4091187l6.3247986-3.6526184
					c0.6620026-0.3806763,1.7540741-0.3681641,2.4445038,0.0282593l6.5689545,3.790741
					c0.6849976,0.3966064,0.7063751,1.030304,0.0460358,1.4125977L199.4257812,375.0810852z"/>
				<path class="st19" d="M219.6903992,386.7817688c-0.6621094,0.3822632-1.7542572,0.3717651-2.4446869-0.0248413
					l-6.5689545-3.795105c-0.6849976-0.3966064-0.7079773-1.0302734-0.0478516-1.4125671l6.3266144-3.6500854
					c0.661972-0.3822937,1.7576904-0.3717651,2.442688,0.0282898l6.5689545,3.791626
					c0.6886597,0.3966064,0.7098236,1.0266724,0.0478516,1.4125977L219.6903992,386.7817688z"/>
				<path class="st19" d="M239.9532471,398.4788208c-0.6603699,0.3824768-1.754303,0.3717651-2.4392853-0.0248413
					l-6.5725861-3.7950745c-0.6886139-0.3966064-0.7080078-1.0266724-0.0460358-1.4091492l6.3229828-3.6499023
					c0.661972-0.3824768,1.7558899-0.3717651,2.4445038,0.0246582l6.5707703,3.7952576
					c0.6904297,0.3964233,0.7063751,1.0266724,0.0442352,1.4089661L239.9532471,398.4788208z"/>
				<path class="st19" d="M229.8579712,392.6515808c-0.661972,0.3822937-1.7577057,0.3681641-2.4426575-0.0284424
					l-6.5707703-3.7916565c-0.6886597-0.4000549-0.7116699-1.0266724-0.0478973-1.4124146l6.3229828-3.6500854
					c0.6637878-0.3824463,1.7577057-0.3717651,2.444519,0.0248413l6.5707703,3.7914734
					c0.6867981,0.3966064,0.7098236,1.0339355,0.0460358,1.4125671L229.8579712,392.6515808z"/>
				<path class="st19" d="M260.1487732,410.1405334c-0.6637878,0.3822937-1.756073,0.3681335-2.4428711-0.0248413
					l-6.5726013-3.7950745c-0.6849518-0.3966064-0.706192-1.030304-0.04422-1.4125977l6.3265991-3.6500854
					c0.6602173-0.3822937,1.7540894-0.3717651,2.4408875,0.0248413l6.5691528,3.795105
					c0.6884155,0.3965759,0.7098083,1.0266418,0.049469,1.4091187L260.1487732,410.1405334z"/>
				<path class="st19" d="M250.0535278,404.3132935c-0.6637421,0.3786621-1.7558899,0.3681641-2.4445038-0.0284424
					l-6.5707703-3.795105c-0.6868134-0.3966064-0.7063904-1.0266724-0.0478668-1.4091492l6.3266144-3.6499023
					c0.6601562-0.3858948,1.7577057-0.3717651,2.4445038,0.0246582l6.5689697,3.7916565
					c0.6868286,0.4000549,0.7080078,1.030304,0.0460205,1.4125671L250.0535278,404.3132935z"/>
				<path class="st19" d="M225.4486084,400.9463501c-0.6620026,0.3788452-1.7542877,0.3683167-2.4427338-0.0282898
					l-6.5707703-3.7916565c-0.6886139-0.3963928-0.7081909-1.0300903-0.0460052-1.4089355l6.3264008-3.6535339
					c0.661972-0.3824768,1.7524872-0.3717651,2.4428711,0.0246582l6.5671539,3.7952576
					c0.6886139,0.3964233,0.7098236,1.0266724,0.0494843,1.4089661L225.4486084,400.9463501z"/>
				<path class="st19" d="M245.7131958,412.6470337c-0.661972,0.3788452-1.756073,0.3681335-2.444519-0.0282898
					l-6.5707703-3.7952576c-0.6851654-0.3964233-0.7063751-1.0266724-0.04422-1.4089661l6.3264313-3.6535339
					c0.6585236-0.3788452,1.7542572-0.3681335,2.4392395,0.0282898l6.5707703,3.7916565
					c0.6868134,0.4000244,0.7080231,1.0302734,0.0478973,1.4125671L245.7131958,412.6470337z"/>
				<path class="st19" d="M235.6163177,406.8161621c-0.6603394,0.3788452-1.756073,0.3681641-2.4428711-0.0282593
					l-6.5689545-3.7916565c-0.6904297-0.4000549-0.7116394-1.0266724-0.0494843-1.4125671l6.3246155-3.6500854
					c0.6621399-0.3822937,1.7576904-0.3716125,2.4446869,0.0248108l6.5707703,3.7952881
					c0.6884308,0.3964233,0.7080078,1.0266724,0.0424042,1.4125671L235.6163177,406.8161621z"/>
				<path class="st19" d="M265.9069214,424.3016663c-0.6619568,0.3859253-1.7558899,0.3717651-2.442688-0.0248413
					l-6.5691223-3.791626c-0.688446-0.3964233-0.7114563-1.0301208-0.0513-1.4089661l6.3300476-3.6571655
					c0.6603394-0.3822632,1.756073-0.3681335,2.4410706,0.0282898l6.5707703,3.7952881
					c0.6867981,0.3929749,0.7061768,1.0302734,0.0460205,1.4089355L265.9069214,424.3016663z"/>
				<path class="st19" d="M255.8101044,418.4744568c-0.6620178,0.3786316-1.7559357,0.3681335-2.4427338-0.0248413
					l-6.5691376-3.7987366c-0.6886139-0.3929749-0.7098236-1.0232239-0.0476379-1.4091187l6.324585-3.6499023
					c0.6603394-0.3824768,1.7542877-0.3717651,2.4410553,0.0282593l6.5725708,3.7916565
					c0.6868286,0.4000549,0.7098389,1.030304,0.047699,1.4125977L255.8101044,418.4744568z"/>
				<path class="st19" d="M174.8242798,371.7177429c-0.661972,0.3824768-1.7558899,0.3683472-2.4428711-0.0282593
					l-6.572403-3.7916565c-0.6851654-0.3973389-0.7063446-1.0275879-0.0442352-1.4116821l6.3246155-3.6500854
					c0.6603394-0.3822937,1.756073-0.371582,2.4410706,0.0266418l6.5725861,3.793457
					c0.6886139,0.3964233,0.706192,1.0301208,0.04422,1.4116821L174.8242798,371.7177429z"/>
				<path class="st19" d="M195.0871277,383.4184265c-0.6638184,0.3788452-1.7559357,0.3681641-2.4427338-0.0282593
					l-6.5691376-3.7952881c-0.6902466-0.3964233-0.7098236-1.0266724-0.0476379-1.4089661l6.324585-3.6500854
					c0.6637726-0.3822632,1.7561035-0.371582,2.4463196,0.0248413l6.5673218,3.7952881
					c0.6867981,0.3964233,0.7080078,1.0266724,0.0460358,1.4089355L195.0871277,383.4184265z"/>
				<path class="st19" d="M184.9920349,377.5875854c-0.6637878,0.3824463-1.7578888,0.3717651-2.4446564-0.0282898
					l-6.5707703-3.7916565c-0.6868439-0.4000244-0.7080536-1.0302734-0.0442657-1.4125671l6.3229828-3.6500854
					c0.661972-0.3822937,1.756073-0.371582,2.4428711,0.0248413l6.5689545,3.7952576
					c0.6886292,0.3964233,0.7098389,1.0301208,0.0478973,1.4125977L184.9920349,377.5875854z"/>
				<path class="st19" d="M144.5318604,354.2288208c-0.6603394,0.3806458-1.7542572,0.3699341-2.444519-0.0264893
					l-6.5691376-3.7952576c-0.6867981-0.3964233-0.706192-1.0248718-0.04422-1.4089661l6.321167-3.651886
					c0.6621552-0.3822937,1.7595215-0.3717651,2.4463196,0.0248108l6.5691376,3.795105
					c0.6868134,0.3966064,0.7098236,1.0285034,0.0476685,1.4109497L144.5318604,354.2288208z"/>
				<path class="st19" d="M164.7964783,365.9267578c-0.6621552,0.3824768-1.756073,0.3717957-2.4428864-0.0282593
					l-6.5689545-3.7916565c-0.6904297-0.3966064-0.7116394-1.0284729-0.0494843-1.4098511l6.3246155-3.6519165
					c0.661972-0.3840942,1.7577362-0.3681335,2.4429169,0.0282898l6.5723572,3.7916565
					c0.6868134,0.3956909,0.7081909,1.0275574,0.046051,1.4100342L164.7964783,365.9267578z"/>
				<path class="st19" d="M154.6977844,360.0968323c-0.6603394,0.3840942-1.7560272,0.3717651-2.4428711-0.0248413
					l-6.5707703-3.7932739c-0.6849976-0.3984375-0.7062073-1.030304-0.0460358-1.4125977l6.3248291-3.651886
					c0.6637421-0.3788452,1.7558594-0.3681641,2.4462891,0.0282593l6.5689545,3.7916565
					c0.6851654,0.4000549,0.7081909,1.0321045,0.0478821,1.4125977L154.6977844,360.0968323z"/>
				<path class="st19" d="M215.2826385,395.0766907c-0.661972,0.3786621-1.7558899,0.3681641-2.4426575-0.0284424
					l-6.5707703-3.7916565c-0.6868439-0.3964233-0.7082214-1.0301208-0.0460815-1.4125671l6.3264313-3.6499023
					c0.6603394-0.3824768,1.7542572-0.3717957,2.4392548,0.0246277l6.5725861,3.7952881
					c0.6867981,0.3964233,0.7098236,1.0266724,0.0476685,1.4089661L215.2826385,395.0766907z"/>
				<path class="st19" d="M205.1857758,389.2492981c-0.661972,0.3788147-1.7558899,0.3681335-2.444519-0.0282898
					l-6.5707703-3.7952881c-0.6851654-0.3963928-0.7063446-1.0266418-0.04422-1.4125671l6.3264313-3.6499023
					c0.6585236-0.3788452,1.7542572-0.3683167,2.4392395,0.0282898l6.5707703,3.791626
					c0.6886292,0.4000549,0.7080231,1.030304,0.0478668,1.4089661L205.1857758,389.2492981z"/>
				<path class="st19" d="M218.3184357,407.8995667c-0.661972,0.3788452-1.7542725,0.3681641-2.444519-0.0282593
					l-6.5689545-3.7952881c-0.6886139-0.3964233-0.7081909-1.0266724-0.0460358-1.4089355l6.3229828-3.653717
					c0.6601562-0.3822937,1.7577057-0.3681335,2.442688,0.0284424l6.5689545,3.795105
					c0.6886292,0.3929749,0.7116394,1.0266724,0.0478668,1.4091492L218.3184357,407.8995667z"/>
				<path class="st19" d="M238.5812378,419.6002502c-0.6601562,0.3786621-1.7558899,0.3681641-2.4410706-0.0284424
					l-6.572403-3.7916565c-0.6867981-0.4000549-0.7081909-1.0301208-0.0460358-1.4125671l6.3246155-3.6535339
					c0.6639557-0.3822937,1.756073-0.3717651,2.4429169,0.0248413l6.5707703,3.7950745
					c0.6867676,0.3966064,0.707962,1.030304,0.0460052,1.4125977L238.5812378,419.6002502z"/>
				<path class="st19" d="M228.4843597,413.7657776c-0.6637878,0.3822937-1.7558899,0.3717651-2.442688-0.0248413
					l-6.5707703-3.791626c-0.6851807-0.3964233-0.7081909-1.0301208-0.046051-1.4089661l6.3246613-3.6535339
					c0.6621094-0.3824463,1.757843-0.3683167,2.4462738,0.0246582l6.567337,3.7952881
					c0.6867981,0.3929749,0.7080078,1.0266724,0.0460358,1.4089355L228.4843597,413.7657776z"/>
				<path class="st19" d="M167.6923218,378.67099c-0.661972,0.3788452-1.7558594,0.3681335-2.4408875-0.0282898
					l-6.5690918-3.7916565c-0.6886597-0.4000244-0.7098694-1.0302734-0.04953-1.4125671l6.3246155-3.6500854
					c0.6621552-0.3822937,1.7542725-0.3717651,2.4447021,0.0248413l6.5671387,3.7950745
					c0.6886139,0.3966064,0.7080078,1.0266724,0.0478821,1.4091492L167.6923218,378.67099z"/>
				<path class="st19" d="M187.9569397,390.368042c-0.661972,0.3822937-1.7524414,0.3717651-2.442688-0.0248413
					l-6.5725861-3.7950745c-0.6849976-0.3966064-0.7045746-1.0266724-0.0442352-1.4091492l6.3246155-3.6499023
					c0.6621552-0.3824768,1.7542572-0.3717651,2.4410706,0.0246582l6.5725861,3.7916565
					c0.6867981,0.3965759,0.7098236,1.0302734,0.0460358,1.4125671L187.9569397,390.368042z"/>
				<path class="st19" d="M177.8600616,384.5372009c-0.6637726,0.3822632-1.7558899,0.3717651-2.4428711-0.0248413
					l-6.572403-3.795105c-0.6867981-0.3929749-0.7063751-1.0266724-0.04422-1.4091187l6.3227997-3.6499329
					c0.6585236-0.3824463,1.7578888-0.3717651,2.4429169,0.0246582l6.5725708,3.7952881
					c0.6867676,0.3929749,0.7061615,1.0266724,0.0423889,1.4089661L177.8600616,384.5372009z"/>
				<path class="st19" d="M137.4017029,361.1793213c-0.6619568,0.3822937-1.7576904,0.3717651-2.4428711-0.0248413
					l-6.5689545-3.7925415c-0.6886139-0.3982544-0.7116394-1.0285034-0.0513-1.4125977l6.3264618-3.6499023
					c0.6621246-0.3824463,1.7542267-0.3717651,2.4462891,0.0246582l6.565506,3.793457
					c0.6904297,0.4000549,0.7098236,1.030304,0.0478668,1.4125977L137.4017029,361.1793213z"/>
				<path class="st19" d="M157.6645203,372.8790894c-0.661972,0.3822937-1.7559052,0.3681641-2.4428864-0.0248108
					l-6.572403-3.7952881c-0.6851654-0.3964233-0.7063751-1.0266724-0.04422-1.4080505l6.3246155-3.651886
					c0.661972-0.3840942,1.756073-0.3716125,2.4428711,0.0266418l6.5707703,3.7943726
					c0.6867981,0.3964233,0.7080536,1.0266724,0.0460358,1.4089355L157.6645203,372.8790894z"/>
				<path class="st19" d="M147.5676422,367.0507812c-0.6619415,0.3806458-1.7577057,0.3699646-2.4428711-0.0246582
					l-6.5689697-3.793457c-0.6902466-0.3982239-0.7116241-1.030304-0.0478516-1.4143982l6.3229828-3.6508179
					c0.6621552-0.3806458,1.7578888-0.3699341,2.4447021,0.0300903l6.5707703,3.7907715
					c0.6868286,0.3963928,0.7080078,1.0282898,0.0458527,1.4125671L147.5676422,367.0507812z"/>
				<path class="st19" d="M208.1525269,402.0297546c-0.6620026,0.3788452-1.7577362,0.3681335-2.4427185-0.0282898
					l-6.5707703-3.7952576c-0.6886292-0.3929749-0.7082062-1.0266724-0.0496368-1.4089661l6.3265686-3.6500854
					c0.6601562-0.3822632,1.7541199-0.3717651,2.4427032,0.0248413l6.5707703,3.795105
					c0.6886139,0.3965759,0.7063751,1.0266724,0.0460358,1.4125671L208.1525269,402.0297546z"/>
				<path class="st19" d="M198.0538177,396.1988831c-0.6637878,0.3822937-1.7558594,0.3717957-2.4408875-0.0248108
					l-6.5744019-3.795105c-0.6849823-0.3966064-0.7063751-1.030304-0.04422-1.4125671l6.3246155-3.6500854
					c0.6603394-0.3822937,1.7542572-0.3717651,2.4428711,0.0282593l6.5725861,3.7916565
					c0.6849976,0.3966064,0.7080078,1.0266724,0.0442657,1.4125671L198.0538177,396.1988831z"/>
				<path class="st19" d="M213.8452301,416.2688293c-0.6637878,0.3822937-1.7540741,0.3716125-2.4426575-0.0248108
					l-6.5707703-3.7952881c-0.6850281-0.3964233-0.7098694-1.0266724-0.0442657-1.4089661l6.321167-3.6500854
					c0.661972-0.3822632,1.7595215-0.371582,2.4463196,0.0248413l6.5671539,3.7916565
					c0.6886139,0.4000549,0.7116394,1.030304,0.0460358,1.4125671L213.8452301,416.2688293z"/>
				<path class="st19" d="M224.0130157,422.1384888c-0.6638184,0.3824463-1.759552,0.3717651-2.4445496-0.0246582
					l-6.5725861-3.7952881c-0.6831665-0.3929749-0.706192-1.0266724-0.0423737-1.4089355l6.3229523-3.6500854
					c0.661972-0.3822937,1.7541046-0.3717651,2.442688,0.0248413l6.5725861,3.7950745
					c0.6849823,0.3966064,0.7080078,1.0266724,0.04422,1.4091492L224.0130157,422.1384888z"/>
				<path class="st19" d="M163.220932,387.0436707c-0.6637726,0.3788452-1.7576904,0.3681641-2.442688-0.0282593
					l-6.5707703-3.7952881c-0.6886139-0.3964233-0.7080078-1.0266724-0.0460358-1.4089355l6.3229828-3.6500854
					c0.661972-0.3822937,1.7540741-0.3716125,2.4445038,0.0248108l6.5689545,3.7952881
					c0.6904297,0.3964233,0.7080078,1.0266724,0.0460358,1.412384L163.220932,387.0436707z"/>
				<path class="st19" d="M183.4855499,398.7407532c-0.661972,0.3824463-1.7595062,0.3683167-2.4444733-0.0246582
					l-6.5707703-3.7952881c-0.6850281-0.3964233-0.7080383-1.0301208-0.0442505-1.4089355l6.3229828-3.6500854
					c0.661972-0.3822937,1.7540741-0.3717651,2.4445038,0.0248108l6.5689545,3.795105
					c0.6867981,0.3966064,0.7116394,1.0266724,0.0460358,1.4091492L183.4855499,398.7407532z"/>
				<path class="st19" d="M173.3886871,392.9098816c-0.6637878,0.3859253-1.7577057,0.3717651-2.4463196-0.0246582
					l-6.5689545-3.7952576c-0.6904297-0.3964233-0.7080231-1.0266724-0.0442352-1.4089661l6.3193512-3.6535339
					c0.661972-0.3788147,1.7577057-0.3683167,2.444519,0.0282898l6.5707703,3.795105
					c0.6886139,0.3929749,0.7080078,1.0266724,0.0460358,1.4091187L173.3886871,392.9098816z"/>
				<path class="st19" d="M132.9285431,369.5511169c-0.6601868,0.3858948-1.7559204,0.3717651-2.4427338-0.0246582
					l-6.5707626-3.7925415c-0.6868057-0.3966064-0.7098236-1.030304-0.047821-1.4125977l6.3229446-3.6491699
					c0.6637878-0.3840942,1.759552-0.3717651,2.4463196,0.0264587l6.5689697,3.792572
					c0.6904297,0.3966064,0.7080078,1.0284729,0.04422,1.4091187L132.9285431,369.5511169z"/>
				<path class="st19" d="M99.7879028,362.5723267c-0.7522354,0.4337463-1.9152222,0.4620361-2.6038361,0.0690613
					l-6.5689545-3.79599c-0.6868057-0.3966064-0.6391373-1.0692749,0.1132889-1.5028687l7.1689377-4.1403809
					c0.7506027-0.4337769,1.9153976-0.4620361,2.6022034-0.0638123l6.5707703,3.7916565
					c0.6868057,0.398407,0.637352,1.0726929-0.1132889,1.5028381L99.7879028,362.5723267z"/>
				<path class="st19" d="M109.8847733,368.4006348c-0.7504272,0.4353943-1.9152145,0.4636841-2.6020203,0.0672607
					l-6.5707703-3.792572c-0.6886215-0.3982239-0.6354752-1.0708923,0.1114731-1.5028381l7.170929-4.1394958
					c0.7504272-0.4337463,1.9152222-0.4620361,2.6056519-0.0654297l6.5671463,3.790741
					c0.6904297,0.3982239,0.6373215,1.0727234-0.1132889,1.5044861L109.8847733,368.4006348z"/>
				<path class="st19" d="M119.9834595,374.2315063c-0.752243,0.4317627-1.9188461,0.4602051-2.6038361,0.0672302
					l-6.5725861-3.7952576c-0.6867676-0.3964233-0.6355057-1.0690918,0.1151047-1.5046692l7.1691208-4.1358643
					c0.7504272-0.4337769,1.9170303-0.4620361,2.6038666-0.0672607l6.5707703,3.7960205
					c0.6849594,0.3966064,0.6354752,1.0692444-0.1133194,1.5012207L119.9834595,374.2315063z"/>
				<path class="st19" d="M206.0177612,423.9052429c-0.7524109,0.4317627-1.9170227,0.4602356-2.6022034,0.0636292
					l-6.5707703-3.7916565c-0.6884308-0.3964233-0.6389465-1.0690918,0.1132965-1.5046387l7.1691132-4.1386108
					c0.7487946-0.4317627,1.917038-0.4602051,2.6022034-0.0636292l6.5707703,3.7916565
					c0.6902466,0.3964233,0.637146,1.0690918-0.1132812,1.5046692L206.0177612,423.9052429z"/>
				<path class="st19" d="M153.1913147,381.2518005c-0.6601562,0.3822937-1.7540436,0.3681335-2.442688-0.0282898
					l-6.5672913-3.791626c-0.6886597-0.3966064-0.7116852-1.0266724-0.04953-1.4125977l6.3246155-3.6500854
					c0.6639709-0.3822632,1.7542572-0.3717651,2.4446869,0.0282898l6.5725861,3.7916565
					c0.6849976,0.4000244,0.7043915,1.0302734,0.04245,1.4125671L153.1913147,381.2518005z"/>
				<path class="st19" d="M143.0962524,375.4245605c-0.661972,0.3786621-1.756073,0.3681641-2.4463196-0.0284424
					l-6.5689545-3.7916565c-0.6851654-0.4000549-0.7063751-1.0301208-0.0444031-1.4160156l6.3229828-3.6492004
					c0.6637726-0.3806458,1.7578735-0.3681335,2.4428711,0.0282898l6.5689545,3.790741
					c0.6886139,0.4000549,0.7116394,1.030304,0.0513,1.4125977L143.0962524,375.4245605z"/>
				<path class="st19" d="M203.6776733,410.3990173c-0.6603088,0.3822632-1.7542725,0.3752136-2.4410706-0.0248413
					l-6.5707703-3.795105c-0.6867981-0.3965759-0.7079773-1.0266724-0.0478516-1.4125671l6.3247986-3.6500854
					c0.661972-0.3788452,1.7558899-0.3681335,2.442688,0.0248413l6.5725861,3.7987061
					c0.6868439,0.3929749,0.7063751,1.0266724,0.04422,1.4089661L203.6776733,410.3990173z"/>
				<path class="st19" d="M193.5808258,404.5715942c-0.6603699,0.3788452-1.7561035,0.3683167-2.4411011-0.0282593
					l-6.5707703-3.7916565c-0.6886139-0.3964233-0.7063751-1.0301208-0.0460358-1.4089661l6.3229828-3.6535339
					c0.661972-0.3824463,1.7540741-0.3717651,2.4445038,0.0282898l6.5689697,3.7916565
					c0.6851654,0.3964233,0.7080078,1.0266724,0.0460358,1.4125671L193.5808258,404.5715942z"/>
				<path class="st19" d="M148.360672,334.5288086c-0.661972,0.3824768-1.7576752,0.3717957-2.444519-0.0264587
					l-6.5690918-3.7952576c-0.6868439-0.3964233-0.7080536-1.0283203-0.0460815-1.4089661l2.6959229-1.5577698
					c0.6603394-0.3804626,1.756073-0.3699646,2.4428711,0.0282898l6.5707703,3.793457
					c0.6867981,0.3966064,0.7098236,1.0284729,0.0478821,1.4107666L148.360672,334.5288086z"/>
				<path class="st19" d="M158.9779358,340.6589355c-0.6655884,0.3804932-1.7558899,0.3699646-2.4463196-0.0266418
					l-6.5671387-3.795105c-0.6867981-0.3965759-0.7116394-1.0266724-0.0496674-1.4107666l2.6959229-1.5559387
					c0.6637878-0.3842773,1.756073-0.3699646,2.4463501,0.0264587l6.5691071,3.7952881
					c0.6868439,0.3982239,0.7080078,1.0282898,0.0458527,1.4107666L158.9779358,340.6589355z"/>
				<path class="st19" d="M169.3492432,346.6473083c-0.661972,0.3822937-1.7524109,0.3717651-2.4410553-0.0266418
					l-6.5707703-3.7932739c-0.6886292-0.3966064-0.7098236-1.0285034-0.046051-1.4109497l2.6959534-1.5559692
					c0.6621246-0.3822632,1.7560425-0.371582,2.4428406,0.0284729l6.5707703,3.7916565
					c0.6868134,0.3964233,0.7080231,1.0266724,0.0478516,1.4107666L169.3492432,346.6473083z"/>
				<path class="st19" d="M179.968338,352.7772522c-0.6637573,0.3806458-1.756073,0.3681335-2.4445038-0.0282593
					l-6.5707703-3.7916565c-0.6868134-0.3964233-0.7082062-1.0266724-0.0478668-1.4125977l2.6993713-1.5541382
					c0.6621552-0.3840942,1.7542572-0.3717651,2.4410553,0.0248413l6.5707703,3.7932739
					c0.6868439,0.398407,0.7082062,1.0284729,0.0478668,1.4107666L179.968338,352.7772522z"/>
				<path class="st19" d="M190.2546539,358.7179565c-0.6620026,0.3804626-1.7542877,0.3681335-2.4410858-0.0284424
					l-6.5725861-3.7916565c-0.6884308-0.3982544-0.7080078-1.0283203-0.0476379-1.4125977l2.6976929-1.5575867
					c0.661972-0.3806458,1.7541199-0.3683167,2.4445038,0.0264587l6.5689697,3.7952881
					c0.6886139,0.3964233,0.7063751,1.0284729,0.0460358,1.4089661L190.2546539,358.7179565z"/>
				<path class="st19" d="M200.8719025,364.8469849c-0.661972,0.3788452-1.7577057,0.3699646-2.442688-0.0282593
					l-6.5707703-3.7934875c-0.6922455-0.3973083-0.7098389-1.0275574-0.0496674-1.4116516l2.6995392-1.5559692
					c0.6601562-0.3822937,1.7540741-0.3699646,2.4410553,0.0248413l6.5707703,3.79599
					c0.688446,0.3966064,0.7044373,1.0284729,0.0424194,1.4091492L200.8719025,364.8469849z"/>
				<path class="st19" d="M211.3298492,370.8859253c-0.661972,0.3786621-1.7540741,0.3681641-2.4427032-0.0284424
					l-6.570755-3.792572c-0.6849976-0.3982239-0.7063904-1.0282898-0.0442352-1.4107666l2.6941071-1.5559387
					c0.661972-0.3822937,1.7542877-0.3699646,2.4428711,0.0248108l6.572403,3.7960205
					c0.6868134,0.3966064,0.7081909,1.0266724,0.0444183,1.4091187L211.3298492,370.8859253z"/>
				<path class="st19" d="M221.9454956,377.0140686c-0.6603394,0.3824463-1.7542572,0.3681335-2.4428711-0.0282898
					l-6.5671539-3.7916565c-0.6920624-0.3965759-0.7098236-1.0302734-0.0478516-1.4089355l2.6959229-1.5577698
					c0.6603394-0.3859253,1.756073-0.3717651,2.4410553,0.0246582l6.5689545,3.7952576
					c0.6886292,0.3964233,0.7116394,1.0266724,0.0514832,1.4125977L221.9454956,377.0140686z"/>
				<path class="st19" d="M232.3220978,383.0042419c-0.6620178,0.3822937-1.7577515,0.3681641-2.4429169-0.0282593
					l-6.572403-3.7916565c-0.6851807-0.3966064-0.7063751-1.030304-0.0460052-1.4125977l2.6940613-1.5577698
					c0.661972-0.3822632,1.7595673-0.3681335,2.4463348,0.0282898l6.5689545,3.7952881
					c0.6867981,0.3963928,0.7098236,1.0300903,0.0478516,1.4089355L232.3220978,383.0042419z"/>
				<path class="st19" d="M242.9375153,389.1325684c-0.6654205,0.3822632-1.7558899,0.3681335-2.4445038-0.0284729
					l-6.5725861-3.7916565c-0.6831818-0.3964233-0.706192-1.0266724-0.04422-1.4125671l2.6959076-1.5575867
					c0.6603851-0.3788452,1.7578888-0.3683472,2.4446869,0.0282593l6.5689697,3.795105
					c0.6886139,0.3966064,0.7080383,1.0268555,0.0460358,1.4091492L242.9375153,389.1325684z"/>
				<path class="st19" d="M253.2239838,395.0730896c-0.6621094,0.3822632-1.7542572,0.3681335-2.4410553-0.0282898
					l-6.5725861-3.7952881c-0.6886139-0.3929749-0.7097931-1.0266724-0.0460358-1.4089355l2.6959076-1.5577698
					c0.661972-0.3788452,1.7577057-0.3681641,2.4428864,0.0282593l6.5689545,3.7916565
					c0.6904144,0.4000549,0.706192,1.030304,0.0478516,1.4125977L253.2239838,395.0730896z"/>
				<path class="st19" d="M263.8430786,401.2013855c-0.6655884,0.3822937-1.7578735,0.371582-2.4464722-0.0248413
					l-6.570755-3.7952576c-0.6868439-0.4000549-0.7062378-1.0301208-0.0442657-1.4125977l2.6943054-1.5541382
					c0.6619568-0.3822937,1.7558594-0.3717651,2.4444885,0.0248413l6.5689392,3.7950745
					c0.6886292,0.3966064,0.7080383,1.0268555,0.0479126,1.4091492L263.8430786,401.2013855z"/>
				<path class="st19" d="M274.2673035,407.2198486c-0.6637878,0.3822937-1.7558899,0.3717651-2.4462891-0.0248413
					l-6.5689392-3.7950745c-0.6868591-0.3966064-0.7080688-1.0266724-0.0460815-1.4091492l2.6959229-1.5577698
					c0.6619568-0.3822937,1.756073-0.371582,2.4410706,0.0248413l6.5725708,3.7952576
					c0.688446,0.3964233,0.7062073,1.0301208,0.0460815,1.4125977L274.2673035,407.2198486z"/>
				<path class="st19" d="M284.8829651,413.351593c-0.6621704,0.3788452-1.7579041,0.3681641-2.4447021-0.0282593
					l-6.5689392-3.7952881c-0.6902771-0.3964233-0.7080383-1.0266724-0.0460205-1.4089661l2.6942444-1.5541382
					c0.6619873-0.3858948,1.7558899-0.3717651,2.4445496,0.0246582l6.5689697,3.7916565
					c0.6903687,0.3966064,0.7079773,1.0266724,0.04599,1.4125671L284.8829651,413.351593z"/>
				<path class="st19" d="M134.3305817,348.3377686c-0.6621552,0.3840942-1.7542572,0.3717651-2.4428864-0.0248413
					l-11.5147018-6.6485291c-0.6868057-0.398407-0.7081909-1.0302734-0.0478516-1.4109497l6.3264236-3.6517029
					c0.6621552-0.3822937,1.7578888-0.3699646,2.4428711,0.0282593l11.5165253,6.6487427
					c0.6868134,0.3947754,0.7080078,1.0284729,0.0442352,1.4073181L134.3305817,348.3377686z"/>
				<path class="st19" d="M127.3402176,355.372406c-0.6638184,0.3804626-1.7559204,0.3699341-2.4445419-0.0300903
					l-14.1098404-8.1427002c-0.6868057-0.398407-0.7080154-1.0302734-0.0460434-1.4125671l6.3247986-3.6482849
					c0.661972-0.3840942,1.7576981-0.3717651,2.4426956,0.0248413l14.1098404,8.1443176
					c0.6886139,0.3982239,0.7063751,1.030304,0.0460358,1.4125671L127.3402176,355.372406z"/>
				<path class="st19" d="M123.0370407,363.8433533c-0.6603699,0.3840942-1.7542877,0.3699341-2.4392853-0.0264893
					l-19.2981186-11.1403809c-0.6868057-0.3984375-0.7098236-1.0285034-0.0478592-1.4109497l6.3282471-3.6517334
					c0.6603394-0.3822632,1.7542572-0.3699341,2.4428711,0.0282898l19.2928696,11.1376648
					c0.6884308,0.3966064,0.7098236,1.030304,0.0476685,1.4125977L123.0370407,363.8433533z"/>
				<path class="st19" d="M132.4099121,381.5916748c-0.661972,0.3822632-1.7576904,0.3681335-2.4428711-0.0282898
					l-9.0595016-5.2290649c-0.6868057-0.3964233-0.7098236-1.0266724-0.0478592-1.4125671l7.4877777-4.3225708
					c0.661972-0.3824768,1.7577057-0.3717651,2.4445038,0.0282593l9.0578766,5.2288818
					c0.6902466,0.4000549,0.7116699,1.030304,0.0494843,1.4125977L132.4099121,381.5916748z"/>
				<path class="st19" d="M195.4499817,417.9857483c-0.6637573,0.3824768-1.7559052,0.3717651-2.4427032-0.0246277
					l-9.0631256-5.2326965c-0.6851807-0.3964233-0.7063904-1.0266724-0.046051-1.4089661l7.4912567-4.3262024
					c0.6619415-0.3788147,1.7540436-0.3681335,2.4426727,0.0282898l9.0596771,5.2325134
					c0.6868134,0.3966064,0.7098236,1.0266724,0.0477142,1.4091187L195.4499817,417.9857483z"/>
				<path class="st19" d="M275.2976379,418.8850098c-0.6656189,0.3824463-1.7613525,0.3683167-2.4463501-0.0282898
					l-11.8246765-6.8256226c-0.6884155-0.3966064-0.7098083-1.030304-0.049469-1.4125671l6.3247986-3.6500854
					c0.6619568-0.3859253,1.7595215-0.3717651,2.4444885,0.0248108l11.8262939,6.8292542
					c0.6868286,0.3964233,0.7080383,1.0301208,0.046051,1.4089661L275.2976379,418.8850098z"/>
				<path class="st19" d="M256.3199463,429.8387146c-0.6602936,0.3822632-1.7560577,0.3681335-2.4410553-0.0282898
					l-14.244339-8.2240601c-0.6904297-0.3966064-0.7098236-1.0266724-0.0513-1.4091492l6.3264313-3.6535339
					c0.661972-0.3822632,1.7558899-0.3681335,2.4428711,0.0282898l14.2459869,8.2240601
					c0.6851501,0.3966064,0.7098083,1.030304,0.0496521,1.4125977L256.3199463,429.8387146z"/>
				<path class="st19" d="M246.8337555,435.3155518c-0.6621552,0.3822937-1.7542572,0.3717651-2.4428711-0.0282898
					l-19.2238159-11.098877c-0.6920624-0.3964233-0.7132568-1.0266724-0.0476685-1.4089661l6.3229828-3.6500854
					c0.6601562-0.3822632,1.7558899-0.3717651,2.4445038,0.0248413l19.2254486,11.0987244
					c0.6886139,0.3965759,0.7081909,1.0302734,0.0460358,1.4125671L246.8337555,435.3155518z"/>
				<path class="st19" d="M215.955307,429.8245544c-0.661972,0.3822937-1.7576599,0.3717651-2.4445038-0.0248108
					l-6.5689545-3.795105c-0.6886292-0.3966064-0.7082062-1.0266724-0.0444183-1.4091492l2.5438843-1.4691162
					c0.6601105-0.3824768,1.7540436-0.3717651,2.4444733,0.0246582l6.5689545,3.7952576
					c0.6849823,0.3964233,0.7063751,1.030304,0.0442657,1.4089661L215.955307,429.8245544z"/>
				<path class="st19" d="M236.1474152,441.4826355c-0.6621552,0.3824768-1.756073,0.3717957-2.4428711-0.0246277
					l-6.5655212-3.7916565c-0.6938629-0.4000549-0.711441-1.030304-0.0494843-1.4125977l2.547287-1.4692993
					c0.6583557-0.3822937,1.7540741-0.3717651,2.4408875,0.0282898l6.5707703,3.791626
					c0.6886139,0.4000549,0.7098236,1.0266724,0.0460358,1.4091492L236.1474152,441.4826355z"/>
				<path class="st19" d="M226.0503998,435.655426c-0.6620026,0.3822632-1.7559204,0.3717651-2.440918-0.0248413
					l-6.5707703-3.7916565c-0.6886139-0.4000244-0.7116394-1.0337219-0.0496216-1.4160156l7.4877319-4.3227539
					c0.6637878-0.3822937,1.7595215-0.3717651,2.4463196,0.0282898l6.5725861,3.791626
					c0.6849976,0.3966064,0.7062073,1.030304,0.0442352,1.4125977L226.0503998,435.655426z"/>
				<path class="st19" d="M182.8942719,410.7388916c-0.661972,0.3822632-1.7558899,0.3717651-2.442688-0.0248413
					l-46.9584351-27.1114502c-0.6868134-0.4000549-0.7080231-1.030304-0.0458679-1.4125977l7.4894409-4.3261719
					c0.6619415-0.3788452,1.7558594-0.3647156,2.4444733,0.0282593l46.9584351,27.1114502
					c0.6868134,0.4000549,0.7062073,1.030304,0.0442352,1.4125977L182.8942719,410.7388916z"/>
			</g>
		</g>
		<path class="st18" d="M300.2601929,410.4521179c0,2.078186-1.4727173,4.6094971-3.2819519,5.6573792
			c-1.8126221,1.044281-3.2817688,0.2088318-3.2817688-1.8693542s1.4691467-4.6129456,3.2817688-5.6573792
			C298.7874756,407.5385132,300.2601929,408.3739319,300.2601929,410.4521179z"/>
		<path class="st19" d="M299.1626892,411.0821838c0,1.3843079-0.9788208,3.0731201-2.1844482,3.7704468
			c-1.2072144,0.6938782-2.1860352,0.1381226-2.1860352-1.2461853c0.0016479-1.3806763,0.9788208-3.0693054,2.1860352-3.7668152
			C298.1838684,409.145752,299.1626892,409.7015076,299.1626892,411.0821838z"/>
	</g>
	<g>
		<path d="M312.7434387,159.7445526c0,0,6.9959106,8.2121887,3.9585266,15.7521973
			c-1.8309937,4.5664673-11.2086487,0.1889343-17.8759155-3.6604156c-3.8936157-2.2479858-6.8629761-4.3157959-6.8629761-4.3157959
			c3.1427307,6.4353027,5.4677734,13.5740509,7.6882629,19.4768829c0,0,28.6782227,14.5490417,29.9308167,0.8269958
			C330.9195862,172.9441986,312.7434387,159.7445526,312.7434387,159.7445526 M284.2463074,158.9706268
			c-1.7567139-1.0142365-3.5307922-1.4558105-5.3136597-1.9081116c-1.7764893-0.4480438-3.5613403-0.9009247-5.371521-1.9460297
			c-0.0157166-0.0090637-0.0318909-0.0184174-0.0480957-0.0277557c-3.3043518-1.9315033-6.659729-5.8160858-10.1074219-7.8066101
			c-1.1371155-0.6565247-2.284668-1.1073303-3.4429932-1.2137299c-11.6199188,9.5471954-18.6264038,24.1304932-22.760437,38.395462
			c6.2767334,15.9455719,15.042984,32.1529236,16.2016449,45.1435699c0,0-9.2042694,7.2684631-9.1153564,14.2092896
			c0.0662079,5.4184723,11.6216583,21.7269592,11.6216583,21.7269592c5.2278442,4.09729,10.1647339,7.3490295,14.9300842,10.1003113
			c6.9989014,4.040802,13.6274109,7.0022278,20.2627563,9.9788818c0,0,11.8552551-0.0030823,13.2352295-7.5322266
			c1.0672913-5.9091187-9.087677-24.3230133-9.087677-24.3230133c0.1169128-12.472702,5.8146362-19.1638947,14.057251-29.0162506
			c-6.3895569-20.8709412-12.9465637-43.3269196-22.9313965-64.2234497
			C285.6696472,159.888382,284.9595642,159.3824463,284.2463074,158.9706268 M229.947052,145.8378296
			c-0.0171661-0.009903-0.0353241-0.0203857-0.0529785-0.0305786c-2.3144836-1.3362732-4.4590912-2.105835-6.0539856-1.7884369
			c-6.9051056,1.3523865-10.5465546,17.6181946-10.5465546,17.6181946s3.5934448,3.4410553,8.1664886,6.0813141
			c3.1965332,1.8455048,6.8717651,3.2989044,10.1301575,2.9109192c7.909317-0.9600372,7.214035-1.8295288,13.7456665-11.8374634
			C245.3358459,158.7917786,236.8728485,149.836441,229.947052,145.8378296 M318.4282837,197.4628296
			c-0.0524902-0.030304-0.1054688-0.0603333-0.157959-0.0900726c-5.7421265-3.2943268-11.9989319-3.7431183-16.770813-4.1877441
			c0,0,7.4859619,20.6299438,13.6410522,28.3566742c2.9328918,3.676239,8.0127258,7.1082306,12.3876038,9.6340485
			c4.4430542,2.5652008,8.1595459,4.1959991,8.1595459,4.1959991s-4.854187-25.6674042-11.914093-33.6562653
			C322.0878601,199.9325409,320.2811279,198.5325928,318.4282837,197.4628296 M261.3554688,249.5949249
			c0.1987,0.1147156,0.3979187,0.2122192,0.5946655,0.3077545c0.1913757,0.0963745,0.379303,0.1902008,0.5603333,0.2947083
			c0.6156616,0.3554535,1.1523438,0.8352509,1.4714966,1.9607391c0.8338318,2.9476776,1.5050964,5.6976166-0.7573547,5.0785065
			c-0.4026184-0.1093445-0.8222046-0.2940063-1.2504883-0.5412903c-3.2681274-1.8868561-7.0472412-7.436676-7.772644-11.3702393
			c-0.8919983-4.7925568,4.8371582-3.5140686,4.8371582-3.5140686s-0.7052917,2.83992,0.6716614,5.9035645
			C260.1761169,248.7559357,260.760437,249.2513733,261.3554688,249.5949249 M287.0266724,271.5479126
			c-0.4257812-0.2458496-0.8431091-0.5455017-1.243042-0.9017334c-2.2134705-1.9543762-1.8540955-4.1092529-1.0244141-6.0970764
			c0.8117981-1.9247131,3.2742615,1.630127,4.5370789,0.2469788c1.3628235-1.4818115,1.3933105-5.991333,1.3933105-5.991333
			s4.9176941,6.5544128,4.0103455,10.2973938C293.971344,272.1928406,290.2457886,273.4064636,287.0266724,271.5479126
			 M261.1830139,203.3218842c-1.8798523-1.0853271-4.0492554-2.6438446-5.3188782-4.5766907
			c-3.6072388-5.506485-2.3614349-10.4277649-2.3614349-10.4277649s1.8326111,0.243866,4.0377045,1.5175476
			c1.484436,0.8570404,3.1385803,2.1813049,4.5140381,4.2108307c3.5985107,5.2931061,2.7218933,11.0209656,2.7218933,11.0209656
			S263.135437,204.4491272,261.1830139,203.3218842 M286.1735229,217.5231934
			c-1.4226379-0.8213654-2.4358521-1.5090942-2.4358521-1.5090942s-1.0816956-8.2530975,1.5999756-8.5257263
			c2.2545776-0.2352142,4.8281555,0.8791199,6.7909241,2.0123138c1.8391113,1.0618286,3.1421204,2.1404572,3.1421204,2.1404572
			s1.6026001,6.492981-0.7118225,8.258194C292.9934082,221.0964813,288.85495,219.0713196,286.1735229,217.5231934
			 M235.8608551,114.5760574c0,0-18.2210083,2.6345978-14.9253998,12.5091858
			c3.6197357,10.8109665,26.1212921,28.3705826,26.1212921,28.3705826l7.6588898-8.4723511
			c0,0-17.0260468-9.8299866-21.3294678-19.0064468C230.9738922,122.8273239,235.8608551,114.5760574,235.8608551,114.5760574"/>
	</g>
</g>
</svg>
