<?xml version="1.0" encoding="UTF-8" standalone="no"?>
<!-- Created with Inkscape (http://www.inkscape.org/) -->

<svg
   width="200"
   height="200"
   id="svg2986"
   version="1.1"
   inkscape:version="1.3.2 (1:1.3.2+202311252150+091e20ef0f)"
   sodipodi:docname="lexicon-icon.svg"
   inkscape:export-filename="/home/brice/Projets/ekylibre/graphism/projects/HD.png"
   inkscape:export-xdpi="180"
   inkscape:export-ydpi="180"
   xml:space="preserve"
   xmlns:inkscape="http://www.inkscape.org/namespaces/inkscape"
   xmlns:sodipodi="http://sodipodi.sourceforge.net/DTD/sodipodi-0.dtd"
   xmlns="http://www.w3.org/2000/svg"
   xmlns:svg="http://www.w3.org/2000/svg"
   xmlns:rdf="http://www.w3.org/1999/02/22-rdf-syntax-ns#"
   xmlns:cc="http://creativecommons.org/ns#"
   xmlns:dc="http://purl.org/dc/elements/1.1/"><defs
     id="defs2988" /><sodipodi:namedview
     id="base"
     pagecolor="#ffffff"
     bordercolor="#666666"
     borderopacity="1.0"
     inkscape:pageopacity="0.0"
     inkscape:pageshadow="2"
     inkscape:zoom="1.4"
     inkscape:cx="26.071429"
     inkscape:cy="-2.1428571"
     inkscape:document-units="px"
     inkscape:current-layer="layer1"
     showgrid="false"
     borderlayer="true"
     inkscape:showpageshadow="false"
     inkscape:window-width="1848"
     inkscape:window-height="1016"
     inkscape:window-x="72"
     inkscape:window-y="27"
     inkscape:window-maximized="1"
     showguides="true"
     inkscape:guide-bbox="true"
     fit-margin-top="0"
     fit-margin-left="0"
     fit-margin-right="0"
     fit-margin-bottom="0"
     inkscape:pagecheckerboard="0"
     inkscape:deskcolor="#d1d1d1"><sodipodi:guide
       orientation="1,0"
       position="100,-39.999999"
       id="guide4426"
       inkscape:locked="false" /><sodipodi:guide
       orientation="0,1"
       position="-40,99.999997"
       id="guide4432"
       inkscape:locked="false" /></sodipodi:namedview><metadata
     id="metadata2991"><rdf:RDF><cc:Work
         rdf:about=""><dc:format>image/svg+xml</dc:format><dc:type
           rdf:resource="http://purl.org/dc/dcmitype/StillImage" /><dc:title /></cc:Work></rdf:RDF></metadata><g
     inkscape:label="Calque 1"
     inkscape:groupmode="layer"
     id="layer1"
     transform="translate(-40,-812.36219)"><rect
       style="fill:#008080;stroke:#000000;stroke-width:0.515388;stroke-linecap:round;stroke-linejoin:round"
       id="rect1"
       width="199.48462"
       height="43.366852"
       x="40.648071"
       y="855.31946" /><rect
       style="fill:#ff8080;stroke:#000000;stroke-width:0.515388;stroke-linecap:round;stroke-linejoin:round"
       id="rect1-5"
       width="199.48462"
       height="43.366852"
       x="40.164253"
       y="899.55804" /><rect
       style="fill:#ffcc00;stroke:#000000;stroke-width:0.515388;stroke-linecap:round;stroke-linejoin:round"
       id="rect1-3"
       width="199.48462"
       height="43.366852"
       x="40.279003"
       y="943.30548" /><path
       d="m 139.72404,898.4816 c 39.27178,0 78.70713,-6.04579 100.22593,-18.99819 v 18.99819 c 0,15.75508 -44.88529,28.58736 -100.22593,28.58736 -55.34062,0 -100.24933,-12.83228 -100.24933,-28.58736 v -18.99819 c 21.54215,12.9524 60.95422,18.99819 100.24933,18.99819 z m 0,85.78211 c 39.27178,0 78.70713,-6.02578 100.22593,-18.97817 v 18.97817 c 0,15.75509 -44.88529,28.60739 -100.22593,28.60739 -55.34062,0 -100.24933,-12.8523 -100.24933,-28.60739 v -18.97817 c 21.54215,12.95239 60.95422,18.97817 100.24933,18.97817 z m 0,-42.88105 c 39.27178,0 78.70713,-6.04579 100.22593,-18.99818 v 18.99818 c 0,15.73506 -44.88529,28.58736 -100.22593,28.58736 -55.34062,0 -100.24933,-12.8523 -100.24933,-28.58736 v -18.99818 c 21.54215,12.95239 60.95422,18.99818 100.24933,18.99818 z m 0,-128.70319 c 55.34064,0 100.22593,12.85231 100.22593,28.60738 v 14.29369 c 0,15.75508 -44.88529,28.58736 -100.22593,28.58736 -55.34062,0 -100.24933,-12.83228 -100.24933,-28.58736 v -14.29369 c 0,-15.75507 44.90871,-28.60738 100.24933,-28.60738 z"
       id="path1-6"
       style="stroke-width:0.216391" /></g></svg>
