<svg version="1.1" id="Calque_1" xmlns="http://www.w3.org/2000/svg" x="0" y="0" viewBox="0 0 1199.2 293.8" style="enable-background:new 0 0 1199.2 293.8" xml:space="preserve"><style>.st0{fill:#016242}.st4,.st5{fill-rule:evenodd;clip-rule:evenodd;fill:#017f56}.st5{fill:#016242}</style><path class="st0" d="M348.1 45.1c-.1-.8-.3-1.5-.5-2.2-.3-.7-.5-1.4-.8-2.2-.5-1.2-1-2.5-1.4-3.9s-.6-3.1-.6-5c.2-1 .5-1.7.8-2.2s.6-.8.9-1.1l.6-2.7h2.3c.8.1 1.7.2 2.5.2h2.5c3.9 0 7.9-.2 12-.5s8.3-.7 12.6-1.1c4.7-.6 9.8-1.1 15.2-1.4.5-1.1.8-1.8 1-2.1.2-.3.3-.7.5-1.1l1.7-.9c2.4-.1 4 .2 4.9.8.9.7 1.6 1.3 2.2 1.9 2.7-.2 5.4-.5 8.1-.8 2.8-.4 5.6-.7 8.6-1.1 4.1-.5 8.2-1 12.4-1.5 4.2-.5 8.3-.8 12.3-.8 1.7 0 3.4.1 4.9.1 1.5.1 3 .3 4.5.5l1.8 1.4c.4.7.9 1.4 1.5 2s1.3 1.2 2.2 1.8c1.5 1.2 3 2.7 4.5 4.5s2 4.5 1.6 8l-.8 1.5c-.4.4-.9.8-1.5 1.2l-1.5 2h-1.7c-1 0-1.8.1-2.3.2-.5.2-1.1.4-1.8.7-.4.2-.9.4-1.4.5-.5.2-1.1.3-1.7.5-1.1-.1-2-.2-2.6-.2h-2.2c-3.1 0-6.4.2-10 .6-3.6.4-7.1.9-10.4 1.4-2.5.3-4.8.6-7.1.8-2.3.3-4.3.5-6.1.7-1 2.6-1.9 4.9-2.8 6.9-.8 2-1.7 4-2.6 6s-1.8 4-2.6 6.1c-.8 2.1-1.6 4.3-2.3 6.8-1.2 1.8-2.3 3.5-3.1 5.2-.8 1.7-1.5 3.5-2 5.6-1.5 1.7-2.6 3.6-3.3 5.6-.7 2-1.3 3.7-1.8 5.1l-.6 2.3c-.7.7-1.2 1.3-1.3 1.7-.2.4-.4.9-.8 1.4-.3 1.3-.7 2.6-1.2 3.8-.2.5-.4 1-.6 1.6s-.3 1-.2 1.3c-.2 1.1-.5 2-.9 2.6 0 .6-.1 1.2-.2 1.8l-.3 1.8c-.2.7-.4 1.3-.5 1.9s-.1 1.1.2 1.6l.9 1.2c.3.4.6.9.8 1.5.2.2.5.4.8.5s.6.3.8.5c.8.7 1.6 1.1 2.3 1.2l1.5 1.8c.6 3.6.1 6.4-1.7 8.4-1.8 2.3-4.9 3.5-9.2 3.5l-2.2-.2c-.7-.7-1.1-1.2-1.2-1.4-.9-.4-1.7-.7-2.3-1-.6-.3-1.2-.7-1.7-1.4-.2-.2-.5-.3-.8-.4-.3 0-.6-.2-.8-.4-1-.3-1.8-.7-2.5-1.1l-1.7-.9c.1-1 .2-1.7.2-2.1-.8-1.1-1.5-2.3-1.9-3.6-.5-1.3-.8-2.7-1.2-4.1-.3-1.1-.6-2.1-.8-3-.3-.9-.6-1.7-1.2-2.4-.2-7 .5-12.9 2-17.7 1.5-4.8 3.2-9.4 5.1-13.9 1-2.4 2-4.9 2.9-7.4s1.7-5.1 2.5-7.7l1.7-1.7c.7-.6 1.2-1 1.4-1.1 0-1.3.3-2.6.8-3.8.5-1.3 1.1-2.5 1.7-3.8l1.2-2.4c.4-.8.6-1.5.7-2.1-.7 0-1.4 0-1.9.1-.6.1-1.2.1-1.8.2-1.3.3-2.6.5-3.8.5-.9 0-1.6 0-2-.2-.8.4-1.6.6-2.3.7-.7.1-1.4.1-2.2.1h-3.6c-1.2 0-2.2.2-2.9.5h-7.8c-.8 0-1.7-.1-2.8-.2-1-.2-2.1-.5-3.2-1.1l-1.1-1.2c-.6-1.1-1.2-1.7-1.7-1.8l-1.7-.5-.1-1.7zm95.2 75.7c-.4.1-.7-.2-1-.8-.3-.6-.6-1.2-1-1.7h1.2c-.5-1.5-.6-3-.4-4.3.3-1.3.6-2.6.9-3.8.4-1.2.7-2.4.9-3.6.3-1.2.1-2.4-.4-3.6.4.2.6.1.8-.3.2-.4.3-.9.4-1.5s.1-1.2.1-1.9-.1-1.2-.2-1.6c.9-2.2 1.7-4.4 2.2-6.7l1.5-6.9c.4-2.3.9-4.5 1.5-6.6.5-2.1 1.2-4.2 2.1-6.1 1-.1 2.1 0 3.2.4s1.8.9 2.2 1.4c2.2-1.7 4.2-3.7 5.9-6.1 1.7-2.4 3.5-4.7 5.2-7 1.8-2.3 3.7-4.3 6-6.1 2.2-1.8 5-2.8 8.3-3.2 1.7 1.2 3.7 2.5 5.8 3.8 2.2 1.4 3.9 3.1 5.3 5.1.6.4 1.1.7 1.7 1.1.5.4 1.1.8 1.7 1.1v1.6c1 .9 1.8 2 2.5 3.2s1.3 2.5 1.8 3.9 1.1 2.8 1.6 4.2c.5 1.4 1.1 2.7 1.7 3.9-.1.4-.2.8-.2 1.1 0 .3.1.6.2.9s.2.7.3 1.1c.1.4.1.9.1 1.4-.3 3.7-1.5 6.7-3.7 9s-4.8 4.1-8 5.6c-3.1 1.4-6.4 2.7-9.9 3.7s-6.7 2.1-9.6 3.3c0 .3.2.4.5.4s.4.2.3.6c2.2 1.3 3.8 2.3 5 3.1 1.2.8 2.3 1.4 3.3 1.9s2.2 1 3.4 1.3c1.3.4 3 .8 5.2 1.3s4 .9 5.2 1.2c1.3.3 2.4.6 3.4.7 1 .2 2.1.3 3.2.5 1.1.1 2.7.3 4.6.5.8.8 1.4 1.7 1.9 2.7.5 1.1.9 2.1 1.1 3.2s.3 2.1.2 3c-.1.9-.4 1.7-.9 2.3.1.3.3.4.6.4s.7 0 1 .1c-.5.4-.9.8-1.3 1.3s-.7 1-1.1 1.5-.8.9-1.2 1.4c-.5.4-1.1.7-1.8.7-2.6 1-5.9 1-9.9.1s-9.1-2.5-15.4-4.8c-3.1-1.1-5.6-2.1-7.5-3.1-1.9-.9-3.6-1.8-5.1-2.7-1.4-.9-2.8-1.8-4-2.8s-2.6-2.2-4.2-3.6c-.2.1-.3.2-.4.4 0 .2-.2.4-.4.4-.4 2.8-.9 5.1-1.7 6.8-.8 1.8-1.8 3.5-3.3 5.4-1.1-.2-1.9-.1-2.3.3-.4.4-.9.8-1.5 1.2-.7.1-1.3.1-1.6-.1-.4-.2-.7-.4-1-.6-.3-.2-.6-.4-1-.6-.4-.2-.9-.3-1.7-.2l-.6-1.8c-.2-.6-.8-.9-1.7-.8.2-.6.3-1.2.2-1.6-.1-.5-.2-.9-.3-1.3-.1-.4-.3-.8-.4-1.2.3-.4.3-.9.5-1.5zm36-48.1c-.9 1.3-2 2.5-3.1 3.6s-2.3 2.2-3.4 3.4c-1.1 1.2-2.1 2.4-3 3.8s-1.5 3-1.8 4.9c3-.4 6.2-1.2 9.5-2.5s6.4-2.5 9.4-3.7c-.4-2.6-1.3-4.7-2.8-6.3-1.6-1.5-3.2-2.6-4.8-3.2z"/><path class="st0" d="M510 131.1c-1-.6-1.8-1.4-2.4-2.4s-1.1-2-1.5-3.2c-.4-1.1-.7-2.3-1-3.5s-.5-2.4-.8-3.5c0-1 .2-1.7.6-2.2s.9-.9 1.4-1.3c1.7-.1 3.3-.2 4.6-.4 1.4-.2 2.7-.4 4-.6l3.9-.6c1.3-.2 2.7-.3 4.2-.3 1.1-2.2 2.1-4.3 3-6.3s1.8-3.9 2.7-5.7c.4-1.8 1-3.4 1.7-4.9.7-1.5 1.3-2.9 2-4.3.6-1.4 1.2-2.7 1.7-4.1s.8-2.8 1-4.4c.9-2.5 1.6-4.7 2.3-6.8.7-2.1 1.2-4.5 1.6-7.4-2.7.4-4.9.8-6.6 1.2-1.7.4-2.8.8-3.5 1.1-1.4-.1-2.6-.4-3.4-.8-.8-.5-1.5-1.1-2-1.8s-.9-1.5-1.3-2.4c-.4-.9-.8-1.9-1.3-2.8.3-.6.4-1.6.2-2.8-.1-1.2-.6-2.1-1.3-2.7.6-.1 1-.6 1.3-1.4.3-.8.3-1.4.1-1.8 1.2-.4 2.5-.6 3.9-.7 1.4-.1 2.7-.2 4-.3 1.3-.1 2.6-.2 3.8-.4 1.2-.2 2.3-.5 3.1-1.1 3.7-.1 7.6-.3 11.7-.4 4-.1 7.8-.3 11.2-.5 1.3.4 2.8.6 4.5.6 1.7 0 3.4.1 5.1.3 1.7.2 3.2.7 4.5 1.4 1.3.7 2.2 1.9 2.7 3.7 1.1.1 1.9.4 2.4.8s.9.9 1 1.5.2 1.3.2 2-.1 1.5-.1 2.2c-1.1.8-2.6 1.5-4.4 2.1-1.8.5-3.7.9-5.8 1.3-2.1.3-4.2.5-6.5.6-2.3.1-4.5.2-6.6.3-.4 2.3-1 5-1.9 8.2-.9 3.1-1.8 6.2-2.7 9.2s-1.7 5.6-2.4 8c-.7 2.4-1 3.9-.9 4.6-.7 1.6-1.3 3-1.8 4.1s-.9 2.2-1.3 3.2-.8 1.9-1.2 2.9c-.4.9-.9 2-1.5 3.2h7.3c.1.8.5 1.3 1 1.6.5.3 1 .5 1.6.7s1.1.5 1.6.8.7.8.7 1.5c1.4.4 2.2.9 2.6 1.6s.4 1.5.3 2.3c-.2.8-.5 1.6-1.1 2.5-.5.8-1.1 1.6-1.6 2.2-.6-.1-1.3 0-1.8.5-.6.5-1.1 1-1.6 1.5-2.1-.3-4.1-.3-6.1-.1-2 .2-3.9.4-5.6.5-.4.1-.5.3-.4.6.1.3 0 .5-.2.7-2.2-.7-4.5-1-6.8-.8-2.3.1-4.7.5-7.1 1-2.4.5-4.9 1.1-7.4 1.7-2.4.1-5 .5-7.6.5zm59.8-30.9c.1-.3.2-.4.5-.4.2 0 .5 0 .7-.1-.6-.6-.9-1.3-1.1-2.3-.1-.9-.5-1.7-1.1-2.4.1-.4.3-.7.4-1.1.1-.3.4-.5.9-.4-.2-1.5-.2-3 .1-4.3.3-1.3.7-2.6 1.3-3.8.6-1.2 1.3-2.4 2.2-3.5.8-1.2 1.6-2.3 2.4-3.5.6-.1 1-.1 1.2.2.1.2.4.2.8-.2 1.1-.8 1.9-1.6 2.4-2.6.4-.9.6-2 .6-3.1.6-1.8 1.4-3.6 2.2-5.4.8-1.8 1.8-3.5 2.9-5 1.1-1.5 2.2-2.9 3.4-4.1 1.2-1.2 2.5-2.1 4-2.7 1-.8 2.3-1.6 3.8-2.3s3.2-1.2 4.9-1.6c1.8-.4 3.6-.6 5.4-.6 1.9 0 3.6.2 5.2.6.4.1.6.1.6-.3.1-.3.2-.5.5-.5 3.6.4 6.8 1.1 9.6 2.1s5.3 2.4 7.3 4.1c1.4 2.1 2.7 4.4 3.9 6.8 1.2 2.4 2.2 4.9 2.8 7.6.7 2.6 1 5.4.9 8.2-.1 2.8-.7 5.6-1.8 8.4-2.5 3.1-5.6 5.6-9.1 7.4-3.6 1.9-7.4 3.4-11.6 4.6-4.1 1.2-8.4 2.2-12.8 3-4.4.8-8.7 1.6-12.9 2.5.1 1.9.1 3.9 0 6.1-.1 2.1-.3 4.3-.7 6.4s-1 4.2-1.7 6.3c-.8 2-1.8 3.9-3.1 5.7-1.4-.1-2.9.1-4.5.4-1.5.3-2.9.7-4.1 1.1-.6-.4-1.1-.7-1.7-1-.5-.3-1.2-.5-2-.6.2-.8 0-1.7-.6-2.6l-1.8-2.7c-.6-.9-1-1.8-1.2-2.6-.2-.9.2-1.7 1.2-2.4-.6-.5-.9-1.3-.9-2.3.3.3.6.4 1.1.4-.1-1.3 0-2.8.5-4.5.5-1.8.9-3.5 1.2-5.2.3-1.7.4-3.3.2-4.7 0-1.4-.9-2.5-2.4-3.1zm28-24.6c-.3.8-.5 1.5-.7 2.1-.2.6-.4 1.1-.6 1.6s-.4 1-.7 1.5c-.3.5-.5 1.1-.8 1.7.1.4.4.7.9.9s.7.5.9.9c1-.5 2-.9 3-1.1l3-.6c1-.1 2-.3 3-.5s2-.6 3.1-1.1 2.2-.9 3.4-1.2c1.2-.3 2.3-.6 3.5-1 1.1-.4 2.3-.8 3.3-1.2 1.1-.5 2-1.1 2.8-1.8-1-.9-2.5-1.7-4.5-2.4s-4.2-1.1-6.5-1.3c-2.3-.2-4.7 0-7 .5-2.4.4-4.4 1.4-6.1 3zm43.8 50.4c-.3-.3-.5-.6-.8-1-.2-.4-.4-.9-.5-1.5-1-1.2-1.8-2.6-2.4-4.1s-1-3.1-1.2-4.8c-.2-1.6-.3-3.3-.1-5 .1-1.7.4-3.3.8-4.7.2-.7.4-1.4.5-2.2.4-1.3.7-2.6 1.1-3.9s.9-2.4 1.6-3.2c-.3-.8-.3-1.6.1-2.5s.7-1.8 1.1-2.5c.1-.2.3-.4.3-.6.1-.2.1-.3.2-.5.9-2.5 1.7-4.8 2.5-7.1s1.6-4.5 2.4-6.6c1.4-3.9 2.8-7.6 4.1-11.4 1.3-3.7 2.5-7.7 3.6-11.9.6-.4 1.1-.7 1.5-.8.1-.1.3-.1.5-.2s.5-.1.8-.1c1.5.8 3.3 1.5 5.3 2.2s3.8 1 5.2 1l1.8 1.6c.9 1.1 1.7 2.2 2.4 3.3.7 1.2.9 2.6.6 4.5-.4.6-.8 1-1.1 1.2-.4 1.6-.9 3-1.4 4.3-.5 1.2-1 2.4-1.5 3.5-.6 1.3-1.1 2.5-1.6 3.8s-.9 2.8-1.3 4.6c-.4.5-.7.9-.8 1.3s-.2.7-.4 1.1c-.1.4-.3.9-.5 1.3-.2.5-.5.9-1 1.2-.3 2.2-.7 3.9-1.3 5.3s-1.1 2.7-1.7 4.1c-1 2.5-1.9 4.9-2.8 7.3s-1.4 5.2-1.5 8.3c.9-.2 1.6-.3 2.4-.3.9 0 1.8.1 2.7.4 2.6-1.3 5.4-2 8.4-2.3s6.1-.5 9.1-.5c2.5 0 4.8-.1 7-.3.7.5 1.2.8 1.4.8.2 0 .6.1 1.1.1h.6c.2 0 .5 0 .9.1 1 1 2 1.7 2.9 2.1s1.9.8 3 1.1c.9.4 1.8.7 2.7 1.1s1.8.9 2.6 1.5l1 5.4c.6.8.8 1.3.8 1.6 0 .6-.1 1.1-.4 1.5l.2 1.4c-1.4.3-2.3.6-2.7.9s-.9.7-1.4 1.2c-.8.1-1.5.1-2.3.1-1.4 0-2.9.2-4.4.6-2.2-.8-4.5-1.2-7.1-1.2-1 0-2 0-3.1.1-1 .1-2.1.2-3.1.3-1.1.1-2.2.3-3.2.4-1.1.1-2.2.2-3.2.2-.9.1-1.5.2-1.8.3-.4.1-.7.2-1.1.3-2.4.8-5.1 1.5-7.9 2.3s-5.7 1.2-8.6 1.2c-4.2 0-7.6-1.1-10.2-3.2-.3-.6-.5-1.1-.6-1.3.1-.7-.1-.9-.2-1.2zm69.6.3c-.6-.6-1-1.2-1.2-2-.3-.8-.8-1.4-1.8-1.9-.1-1.1-.3-2.3-.6-3.6-.3-1.4-.5-2.8-.8-4.2-.3-1.4-.4-2.9-.5-4.3s-.1-2.8.2-3.9c.1-.6.4-1.2.7-1.8.3-.6.6-1.1 1-1.6s.6-1.1.8-1.6c.2-.6.2-1.1.1-1.7.4-.1.7-.3.8-.7.1-.4.4-.5 1-.4.5-1.5 1-3 1.6-4.3l1.8-3.9c.6-1.3 1.3-2.5 2-3.8.7-1.3 1.3-2.8 1.9-4.4-1.2-1.1-2.1-2.3-2.6-3.6-.5-1.3-1-2.6-1.2-3.9-.3-1.3-.5-2.7-.6-4.1s-.4-2.8-.9-4.2c.9-1.3 1.9-2.3 3.1-3.1 1.2-.8 2.6-1.5 4-2 1.5-.5 3.1-.9 4.8-1.3 1.7-.3 3.5-.7 5.5-1.1 3.4-1.1 6.5-1.9 9.2-2.5 2.7-.6 5.4-1.1 8-1.5s5.3-.7 8.1-1.1c2.8-.3 6-.8 9.7-1.4.1.2.2.3.4.3h.7c.2.5.6.7 1.2.7 0-.2 0-.4-.1-.6 0-.2-.1-.3-.1-.5.1 0 .3 0 .6.1.2.1.5.1.6.2.2.1.3.1.5-.1.1-.1.2-.3.1-.7.9 1.5 2 2.7 3.3 3.6 1.4.9 2.9 1.8 4.5 2.5.1.6.1 1.1.1 1.4 0 .3-.1.5-.2.8-.1.2-.1.5-.1.8s.1.8.2 1.3c-1.1 1.9-2.5 3.4-3.9 4.4-1.5 1.1-3 1.9-4.7 2.4-1.6.6-3.4 1-5.2 1.3-1.8.3-3.7.6-5.6.9-1.9.3-3.8.8-5.8 1.3-1.9.6-3.8 1.4-5.7 2.5-.6-.2-1.1-.3-1.6-.3s-1 .1-1.5.3c-.5.1-1.1.3-1.7.4-.6.1-1.3.1-2.2 0-.6.5-1.2.8-2 1.1-.8.2-1.5.4-2.3.6.4.8.5 1.5.5 2.3s.1 1.4.3 2c3 .3 6.3.3 10-.1 3.7-.3 7.2-.5 10.8-.7.1.4 0 .6-.1.7s-.2.4-.2.7c.6.4 1.3.9 1.8 1.6l1.8 1.8c.6.6 1.2 1.1 1.9 1.5.6.4 1.4.5 2.3.5.4.7.6 1.4.8 2.2.1.8 0 1.6-.3 2.4-1.4.9-2.8 1.8-4.2 2.8-1.4.9-2.8 1.8-4.2 2.6-1.5.8-3.1 1.4-4.8 1.9-1.7.5-3.6.7-5.6.6h-.9c-.3 0-.6-.1-.9-.4-.7.4-1.7.5-2.9.4-1.2-.1-2.2 0-3 .4-1-.4-2.2-.5-3.5-.5-1.3 0-2.5-.2-3.5-.5-1.3 1.8-2.5 3.7-3.7 5.7-1.1 2-2.2 4.1-3 6.4 2.9.4 5.4.6 7.3.5s3.8-.2 5.5-.4c1.7-.2 3.5-.4 5.3-.6 1.8-.2 4.1-.3 6.7-.2 1.8-.8 3.9-1.4 6.2-1.7 2.3-.3 4.5-.8 6.5-1.4.7.2 1.3.6 1.8 1.2l1.5 1.8c.5.6.9 1.1 1.5 1.5.5.4 1.1.6 1.9.4.4.4.6.8.7 1.3s.2.9.3 1.4.3.8.5 1c.2.2.6.3 1.2.3-1.4 2.7-2.9 4.8-4.6 6.3s-3.6 2.6-5.7 3.4-4.5 1.4-7.1 1.8-5.5.9-8.8 1.4c-.8.1-1.5.1-2-.1s-1.1-.3-1.7-.3c-2 .4-4.4.7-7.2 1.1-2.8.4-5.5.5-8.3.4-2.8-.1-5.5-.4-8.1-1.1-2.6-.4-4.7-1.5-6.4-3.1zM351.7 233.8c.1-.4.3-.6.7-.5.4.1.7 0 1-.1-.8-.8-1.3-1.9-1.5-3.2-.2-1.4-.7-2.5-1.5-3.4.2-.5.4-1 .5-1.5.2-.5.6-.7 1.3-.6-.3-2.2-.3-4.3.2-6.2.4-1.9 1-3.7 1.9-5.4s1.9-3.4 3.1-5c1.2-1.7 2.3-3.3 3.5-5 .9-.2 1.5-.1 1.7.2.2.4.6.3 1.1-.2 1.6-1.1 2.8-2.3 3.4-3.7s.9-2.8.9-4.4c.9-2.6 2-5.2 3.1-7.7 1.2-2.6 2.5-4.9 4.1-7.1 1.5-2.2 3.2-4.1 4.9-5.8 1.7-1.7 3.6-2.9 5.7-3.8 1.4-1.2 3.3-2.3 5.5-3.3s4.6-1.8 7.1-2.3 5.1-.9 7.8-.9 5.1.2 7.4.8c.5.2.8.1.9-.4s.4-.7.8-.7c5.1.6 9.7 1.6 13.8 3 4 1.4 7.5 3.4 10.4 5.9 1.9 3 3.8 6.2 5.5 9.7s3.1 7.1 4.1 10.8c1 3.8 1.4 7.6 1.3 11.7-.1 4-1 8-2.6 12-3.6 4.4-7.9 7.9-13.1 10.6-5.1 2.7-10.6 4.9-16.5 6.6-5.9 1.8-12 3.2-18.3 4.3s-12.4 2.3-18.4 3.6c.1 2.7.1 5.6 0 8.6-.1 3.1-.4 6.1-1 9.2s-1.4 6-2.5 8.9-2.5 5.6-4.4 8.1c-2.1-.1-4.2.1-6.4.6s-4.2 1-5.9 1.5c-.8-.5-1.6-1-2.4-1.4-.8-.5-1.7-.7-2.8-.8.3-1.2 0-2.5-.8-3.8-.9-1.3-1.7-2.6-2.6-3.8-.9-1.3-1.4-2.5-1.7-3.8-.3-1.3.3-2.4 1.8-3.4-.8-.7-1.2-1.8-1.2-3.3.4.4.9.6 1.5.6-.2-1.8 0-4 .7-6.5s1.2-5 1.7-7.4c.5-2.5.5-4.7.2-6.8-.6-2.1-1.9-3.6-4-4.5zm39.9-35.2c-.4 1.1-.7 2.1-1 2.9-.3.9-.5 1.6-.8 2.3s-.6 1.4-1 2.1c-.4.7-.7 1.5-1.2 2.4.2.6.6 1.1 1.2 1.4.6.3 1 .8 1.2 1.4 1.4-.7 2.9-1.2 4.3-1.6 1.4-.3 2.9-.6 4.3-.8s2.9-.5 4.3-.8 2.9-.8 4.5-1.5c1.5-.7 3.1-1.3 4.8-1.7 1.7-.5 3.4-.9 5-1.4s3.2-1.1 4.8-1.7c1.5-.7 2.9-1.5 4-2.6-1.4-1.3-3.6-2.5-6.5-3.5s-6-1.6-9.3-1.9c-3.3-.2-6.7 0-10 .7-3.2.7-6.1 2.1-8.6 4.3zm59.8 74c-.6-.6-1-1.2-1.2-2-.3-.8-.8-1.4-1.8-1.9-.1-1.1-.3-2.3-.6-3.6-.3-1.4-.5-2.8-.8-4.2-.3-1.4-.4-2.9-.5-4.3s-.1-2.8.2-3.9c.1-.6.4-1.2.7-1.8s.6-1.1 1-1.6c.3-.5.6-1.1.8-1.6.2-.6.2-1.1.1-1.7.4-.1.7-.3.8-.7.1-.4.4-.5 1-.4.5-1.5 1-3 1.6-4.3l1.8-3.9c.6-1.3 1.3-2.5 2-3.8s1.3-2.8 1.9-4.4c-1.2-1.1-2.1-2.3-2.6-3.6s-1-2.6-1.2-3.9c-.3-1.3-.5-2.7-.6-4.1-.1-1.4-.4-2.8-.9-4.2.9-1.3 1.9-2.3 3.1-3.1s2.6-1.5 4-2c1.5-.5 3.1-.9 4.8-1.3 1.7-.3 3.5-.7 5.5-1.1 3.4-1.1 6.5-1.9 9.2-2.5s5.4-1.1 8-1.5 5.3-.7 8.1-1.1c2.8-.3 6-.8 9.7-1.4.1.2.2.3.4.3h.7c.2.5.6.7 1.2.7 0-.2 0-.4-.1-.6 0-.2-.1-.3-.1-.5.1 0 .3 0 .6.1.2.1.5.1.6.2.2.1.3.1.5-.1.1-.1.2-.3.1-.7.9 1.5 2 2.7 3.3 3.6 1.4.9 2.9 1.8 4.5 2.5.1.6.1 1.1.1 1.4 0 .3-.1.5-.2.8-.1.2-.1.5-.1.8s.1.8.2 1.3c-1.1 1.9-2.5 3.4-3.9 4.4-1.5 1.1-3 1.9-4.7 2.4-1.7.6-3.4 1-5.2 1.3-1.8.3-3.7.6-5.6.9-1.9.3-3.8.8-5.8 1.3-1.9.6-3.8 1.4-5.7 2.5-.6-.2-1.1-.3-1.6-.3s-1 .1-1.5.3c-.5.1-1.1.3-1.7.4-.6.1-1.3.1-2.2 0-.6.5-1.2.8-2 1.1-.8.2-1.5.4-2.3.6.4.8.5 1.5.5 2.3s.1 1.4.3 2c3 .3 6.3.3 10-.1 3.7-.3 7.2-.5 10.8-.7.1.4 0 .6-.1.7-.1.1-.2.4-.2.7.6.4 1.3.9 1.8 1.6l1.8 1.8c.6.6 1.2 1.1 1.9 1.5.6.4 1.4.5 2.3.5.4.7.6 1.4.8 2.2.1.8 0 1.6-.3 2.4-1.4.9-2.8 1.8-4.2 2.8-1.4.9-2.8 1.8-4.2 2.6-1.5.8-3.1 1.4-4.8 1.9-1.7.5-3.6.7-5.6.6h-.9c-.3 0-.6-.1-.9-.4-.7.4-1.7.5-2.9.4s-2.2 0-3 .4c-1-.4-2.2-.5-3.5-.5s-2.5-.2-3.5-.5c-1.3 1.8-2.5 3.7-3.7 5.7-1.1 2-2.2 4.1-3 6.4 2.9.4 5.4.6 7.3.5s3.8-.2 5.5-.4c1.7-.2 3.5-.4 5.3-.6s4.1-.3 6.7-.2c1.8-.8 3.9-1.4 6.2-1.7 2.3-.3 4.5-.8 6.5-1.4.7.2 1.3.6 1.8 1.2l1.5 1.8c.5.6.9 1.1 1.5 1.5.5.4 1.1.6 1.9.4.4.4.6.8.7 1.3s.2.9.3 1.4c.1.4.3.8.5 1s.6.3 1.2.3c-1.4 2.7-2.9 4.8-4.6 6.3s-3.6 2.6-5.7 3.4-4.5 1.4-7.1 1.8-5.5.9-8.8 1.4c-.8.1-1.5.1-2-.1s-1.1-.3-1.7-.3c-2 .4-4.4.7-7.2 1.1-2.8.4-5.5.5-8.3.4s-5.5-.4-8.1-1.1c-2.5-.3-4.7-1.4-6.4-3.1zm65-5.4c-.4.1-.7-.2-1-.8-.3-.6-.6-1.2-1-1.7h1.2c-.5-1.5-.6-3-.4-4.3.3-1.3.6-2.6.9-3.8.4-1.2.7-2.4.9-3.6.3-1.2.1-2.4-.4-3.6.4.2.6.1.8-.3.2-.4.3-.9.4-1.5.1-.6.1-1.2.1-1.9s-.1-1.2-.2-1.6c.9-2.2 1.7-4.4 2.2-6.7l1.5-6.9c.4-2.3.9-4.5 1.5-6.6.5-2.1 1.2-4.2 2.1-6.1 1-.1 2.1 0 3.2.4s1.8.9 2.2 1.4c2.2-1.7 4.2-3.7 5.9-6.1 1.7-2.4 3.5-4.7 5.2-7 1.8-2.3 3.7-4.3 6-6.1 2.2-1.8 5-2.8 8.3-3.2 1.7 1.2 3.7 2.5 5.8 3.8 2.2 1.4 3.9 3.1 5.3 5.1.6.4 1.1.7 1.7 1.1.5.4 1.1.8 1.7 1.1v1.6c1 .9 1.8 2 2.5 3.2.7 1.2 1.3 2.5 1.8 3.9s1.1 2.8 1.6 4.2 1.1 2.7 1.7 3.9c-.1.4-.2.8-.2 1.1s.1.6.2.9c.1.3.2.7.3 1.1.1.4.1.9.1 1.4-.3 3.7-1.5 6.7-3.7 9s-4.8 4.1-8 5.6c-3.1 1.4-6.4 2.7-9.9 3.7s-6.7 2.1-9.6 3.3c0 .3.2.4.5.4s.4.2.3.6c2.2 1.3 3.8 2.3 5 3.1 1.2.8 2.3 1.4 3.3 1.9s2.2 1 3.4 1.3c1.3.4 3 .8 5.2 1.3s4 .9 5.2 1.2c1.3.3 2.4.6 3.4.7 1 .2 2.1.3 3.2.5 1.1.1 2.7.3 4.6.5.8.8 1.4 1.7 1.9 2.7.5 1.1.9 2.1 1.1 3.2.2 1.1.3 2.1.2 3s-.4 1.7-.9 2.3c.1.3.3.4.6.4s.7 0 1 .1c-.5.4-.9.8-1.3 1.3s-.7 1-1.1 1.5-.8.9-1.2 1.4c-.5.4-1.1.7-1.8.7-2.6 1-5.9 1-9.9.1s-9.1-2.5-15.4-4.8c-3.1-1.1-5.6-2.1-7.5-3.1-1.9-.9-3.6-1.8-5.1-2.7-1.4-.9-2.8-1.8-4-2.8-1.2-1-2.6-2.2-4.2-3.6-.2.1-.3.2-.4.4 0 .2-.2.4-.4.4-.4 2.8-.9 5.1-1.7 6.8-.8 1.8-1.8 3.5-3.3 5.4-1.1-.2-1.9-.1-2.3.3s-.9.8-1.5 1.2c-.7.1-1.3.1-1.6-.1-.4-.2-.7-.4-1-.6-.3-.2-.6-.4-1-.6s-.9-.3-1.7-.2l-.6-1.8c-.2-.6-.8-.9-1.7-.8.2-.6.3-1.2.2-1.6-.1-.5-.2-.9-.3-1.3s-.3-.8-.4-1.2c.2-.5.3-1 .5-1.5zm35.9-48.1c-.9 1.3-2 2.5-3.1 3.6s-2.3 2.2-3.4 3.4-2.1 2.4-3 3.8-1.5 3-1.8 4.9c3-.4 6.2-1.2 9.5-2.5s6.4-2.5 9.4-3.7c-.4-2.6-1.3-4.7-2.8-6.3-1.6-1.6-3.1-2.7-4.8-3.2zm37 35.8c-2.2-1.2-3.8-2.9-4.9-5.1-1.1-2.2-1.8-4.2-1.9-6.2.2-1.7.7-3 1.3-3.9.7-.9 1.5-1.7 2.4-2.3s1.9-1.1 2.9-1.4c1-.3 2-.6 2.9-.8l1.6.5c.4.4.7.7 1.1.9.4.3.8.6 1.1.8.7-.3 1.2-.7 1.3-1.3.2-.6.4-1.1.6-1.7.2-.8.5-1.5.8-2.3.3-.8.6-1.5 1.1-2.3-.1-.6 0-1.2.1-1.7s.3-.9.4-1.3c-.4-.4-.7-.5-.9-.6-.2 0-.5-.1-.9-.3-.2 0-.4 0-.6-.1-.2 0-.5-.1-.8-.2-1.1-.8-1.8-1.4-2.1-1.9-.3-.5-.7-1.1-1-1.6-.4-.6-.7-1.1-1-1.5-.3-.4-.6-.8-1-1.2l-1.3-.8.6-1.3c.1-.1.2-.3.2-.6 0-.2-.1-.6-.4-1.1-.2-.9-.3-1.6-.1-2l.2-1.3c.7-.9 1.1-1.4 1.2-1.6l1.1-1.1c1.6-.4 3.3-.9 5.1-1.4 1.7-.5 3.4-1.1 5.1-1.6 1.6-.6 3.3-1.1 5.1-1.7 1.7-.6 3.4-1.1 5.2-1.5.6-.5 1.2-.8 1.9-.9.7-.1 1.3-.2 1.9-.3.5 0 1 0 1.4-.1s.8-.2 1-.5c1.2-.4 2.4-.8 3.5-1.1 2.2-.6 5-1.2 8.5-2s7.5-1.3 11.8-1.7l2.3-.1c.4.1.9.1 1.3.1s.9-.1 1.3-.1c3.7 0 6.2 1.1 7.4 3.4.7.4 1.4.8 1.9 1.3.6.5 1.1 1 1.6 1.5.4.4.7.6 1 .9.3.2.5.4.8.6l.9.8c.8 1.7.9 3.3.4 4.9-.4.8-.9 1.3-1.4 1.5-.5.1-1 .3-1.5.4l-1.4.7c-.9-.1-1.6-.1-2.1-.1h-1.6c-2.2 0-4.6.1-7.5.4-2.8.2-5.7.6-8.7 1.1-2.9.5-5.8 1-8.6 1.7s-5.2 1.4-7.3 2.2c-.6.4-1.3.8-2.3 1.2-.2.1-.5.2-1 .5.1.6.1 1.1 0 1.6l-.3 1.5c-.1.4-.1.7-.2 1.1 0 .4-.1.8-.2 1.2-1.5 1.8-2.2 3.8-2.2 6.2l-.5 1.1c-.3.3-.5.7-.7 1.2-.2.5-.2 1.1-.1 1.6l.4 1.3c1.4-.1 2.8-.3 4.2-.5s2.9-.4 4.5-.6c2-.3 4-.6 6.1-.9 2-.2 4.2-.4 6.4-.4h4.2l-1 .9 1.2.1-.6 1.7c.5.2.9.4 1.1.5.2.1.5.2.7.4l.8 1.1c.4.2.7.5 1 1 .3.5.5 1.1.5 1.8l-.3 1.1-5.1 6.3-.6.8-1.1-.3c-1.4-.1-2.7.1-3.9.4-.6.1-1.2.3-1.8.5s-1.3.3-1.9.3c-1.7.3-3.2.5-4.3.7s-2.3.3-3.4.5c-1.6.3-3.1.5-4.6.8-1.5.2-2.8.6-4.1 1.1-.8.1-1.3.1-1.4.1s-.3-.1-.4-.1c-.7 0-1.4.1-2.2.3-.7.2-1.4.4-2 .6-.4.4-.7.7-.9 1.1-.1.4-.3.8-.4 1.2-.1.5-.3 1-.6 1.4-.3.5-.6.9-.9 1.4l.1 1.9c-.6.1-1 .2-1 .3 0 0 0 .1-.1.1 0 .6-.1 1.1-.3 1.6-.2.5-.3.9-.5 1.4-.1.3-.3.5-.3.7-.1.2-.1.4-.1.6.7 1.3.9 2.7.5 4.3-.3 1.3-.8 2.5-1.6 3.5s-1.7 1.8-2.8 2.4c-1.1.1-2 .1-2.5-.1s-1.1-.4-1.7-.6c-.4-.1-.7-.3-1.1-.4s-.7-.2-1.1-.3l-1.3-1.1c-.2-.4-.5-.8-.8-1.2l-.9-1.2c-.4-.5-.7-1-1.1-1.5s-.7-1.1-1-1.7c-.5-2.5-.6-4.5-.3-6.2.3-1.6.8-3.3 1.3-4.9.1-.6.3-1.1.4-1.6.5.1.7-.4.8-.9zm84.5 21.7c-3.2.4-6 .3-8.6-.4s-4.9-1.8-6.9-3.3-3.8-3.2-5.3-5.3c-1.5-2-2.7-4.2-3.6-6.5-.6-4.8-.5-9.1.5-13s2.5-7.5 4.4-10.8 4.1-6.4 6.6-9.3c2.5-2.9 4.9-5.6 7.2-8.3.5.2.9.2 1.2 0 .3-.2.6-.5.9-.8s.5-.7.9-1.1c.3-.4.7-.6 1.1-.7.3-.6.7-1.2 1.1-1.6l1.5-1.2 1.5-1.2c.5-.4.9-.9 1.2-1.6.7-.1 1.3-.4 1.9-.7.5-.3 1-.7 1.5-1.2.5-.4.9-.8 1.5-1.2.5-.3 1.1-.6 1.8-.8v-1.4c1.6-.7 2.7-1.5 3.4-2.3.7-.8 1.6-1.9 2.6-3.3.8-.1 1.4-.1 1.9-.1s1.2-.1 2.2-.2c.6-1.2 1.3-2.1 1.8-2.6.6-.6 1.4-1.2 2.5-1.9 1.1.6 2.2.9 3.4 1 1.2.1 2.3.6 3.3 1.6.1.8.3 1.5.8 1.9.4.5.9.9 1.4 1.3l1.5 1.2c.5.4.8 1 1 1.8.4 0 .6-.1.7-.2.1-.1.3-.2.7-.1.1.6.3 1 .4 1.4s.3.7.5.9c.2.3.4.6.5.9.2.4.3.8.5 1.3-.4.8-.7 1.7-1 2.7-.3.9-.9 1.6-1.7 1.9 0 .6.2.9.6.9s.7.3.8.8c.1.6 0 1.2-.3 1.6 2 3.3 3.8 6.8 5.5 10.4 1.6 3.6 3.5 7.1 5.6 10.4-.1 1-.1 1.9.2 2.9.2.9.6 1.9 1 2.8.4.9.8 1.8 1.1 2.7.4.9.6 1.8.8 2.7.1 1.2.1 2.5 0 3.8-.1 1.4-.4 2.7-.9 3.9-.4 1.3-1 2.4-1.7 3.5s-1.5 1.9-2.5 2.5c-1.1 1.4-2.6 2.5-4.3 3.4-1.7.9-3.3 1.9-4.7 3.1-1 .6-2.1 1-3.2 1.2s-2.3.5-3.5.8c-.9.6-2 1.1-3.3 1.6-1.3.5-2.6 1-4 1.4s-2.7.8-4.1 1-2.6.3-3.7.2c-2.6.9-5.1 1.5-7.5 1.9-2.5.6-5.4.4-8.7-.3zm1.4-38.3c-.7 1.6-1.6 3.1-2.5 4.4-1 1.3-1.9 2.6-2.8 3.9-.9 1.3-1.7 2.8-2.4 4.3s-1.1 3.3-1.1 5.3c1.4 1.2 3.1 1.9 5.1 2.2 2 .2 4 .3 6.1.1 2.1-.2 4.2-.4 6.2-.8 2.1-.4 3.9-.5 5.6-.5 0-.6.3-.9.9-.9 3-.3 5.8-1.1 8.4-2.5 2.6-1.4 5.3-2.8 8.1-4.2.4-.8.8-1.6 1.4-2.2.6-.6.9-1.5 1-2.7-.4-.6-.6-1.2-.7-1.6-.1-.4-.2-1.1-.2-1.9-1.9-2.5-3.5-5.3-4.8-8.3-1.4-3-2.9-5.8-4.7-8.5-.1.4-.4.7-.9 1.1-.4.4-.9.3-1.4-.2-.2.7-.5 1.2-1 1.4-.4.2-.9.4-1.5.4-.5 0-1.1-.1-1.6-.3s-1-.5-1.5-.8c-2.5 2-5 3.9-7.5 5.7s-4.7 4-6.7 6.4c-.4.2-.6.3-.6.2-.2-.1-.4-.1-.9 0zm57.7 28.9c-.4.1-.7-.2-1-.8-.3-.6-.6-1.2-1-1.7h1.2c-.5-1.5-.6-3-.4-4.3.3-1.3.6-2.6.9-3.8.4-1.2.7-2.4.9-3.6.2-1.2.1-2.4-.4-3.6.4.2.6.1.8-.3.2-.4.3-.9.4-1.5.1-.6.1-1.2.1-1.9s-.1-1.2-.2-1.6c.9-2.2 1.7-4.4 2.2-6.7l1.5-6.9c.4-2.3.9-4.5 1.5-6.6.5-2.1 1.2-4.2 2.1-6.1 1-.1 2.1 0 3.2.4s1.8.9 2.2 1.4c2.2-1.7 4.2-3.7 5.9-6.1 1.7-2.4 3.5-4.7 5.2-7 1.8-2.3 3.7-4.3 6-6.1 2.2-1.8 5-2.8 8.3-3.2 1.7 1.2 3.7 2.5 5.8 3.8 2.2 1.4 3.9 3.1 5.3 5.1.6.4 1.1.7 1.7 1.1.5.4 1.1.8 1.7 1.1v1.6c1 .9 1.8 2 2.5 3.2.7 1.2 1.3 2.5 1.8 3.9s1.1 2.8 1.6 4.2 1.1 2.7 1.7 3.9c-.1.4-.2.8-.2 1.1s.1.6.2.9c.1.3.2.7.3 1.1.1.4.1.9.1 1.4-.3 3.7-1.5 6.7-3.7 9s-4.8 4.1-8 5.6c-3.1 1.4-6.4 2.7-9.9 3.7s-6.7 2.1-9.6 3.3c0 .3.2.4.5.4s.4.2.3.6c2.2 1.3 3.8 2.3 5 3.1 1.2.8 2.3 1.4 3.3 1.9s2.2 1 3.4 1.3c1.3.4 3 .8 5.2 1.3s4 .9 5.2 1.2c1.3.3 2.4.6 3.4.7 1 .2 2.1.3 3.2.5 1.1.1 2.7.3 4.6.5.8.8 1.4 1.7 1.9 2.7.5 1.1.9 2.1 1.1 3.2.2 1.1.3 2.1.2 3s-.4 1.7-.9 2.3c.1.3.3.4.6.4s.7 0 1 .1c-.5.4-.9.8-1.3 1.3s-.7 1-1.1 1.5-.8.9-1.2 1.4c-.5.4-1.1.7-1.8.7-2.6 1-5.9 1-9.9.1s-9.1-2.5-15.4-4.8c-3.1-1.1-5.6-2.1-7.5-3.1-1.9-.9-3.6-1.8-5.1-2.7-1.4-.9-2.8-1.8-4-2.8-1.2-1-2.6-2.2-4.2-3.6-.2.1-.3.2-.4.4 0 .2-.2.4-.4.4-.4 2.8-.9 5.1-1.7 6.8-.8 1.8-1.8 3.5-3.3 5.4-1.1-.2-1.9-.1-2.3.3s-.9.8-1.5 1.2c-.7.1-1.3.1-1.6-.1-.4-.2-.7-.4-1-.6-.3-.2-.6-.4-1-.6s-.9-.3-1.7-.2l-.6-1.8c-.2-.6-.8-.9-1.7-.8.2-.6.3-1.2.2-1.6-.1-.5-.2-.9-.3-1.3s-.3-.8-.4-1.2c.2-.5.3-1 .5-1.5zm35.9-48.1c-.9 1.3-2 2.5-3.1 3.6s-2.3 2.2-3.4 3.4-2.1 2.4-3 3.8c-.9 1.4-1.5 3-1.8 4.9 3-.4 6.2-1.2 9.5-2.5s6.4-2.5 9.4-3.7c-.4-2.6-1.3-4.7-2.8-6.3-1.6-1.6-3.1-2.7-4.8-3.2zm42 58.6c-.7 0-1.8-.1-3.3-.3-1.1-1.2-2.2-2.8-3.1-4.9s-1.6-4.3-2-6.6c-.5-2.4-.7-4.7-.6-7.1 0-2.3.4-4.4 1.2-6.3 0-.1.3-.9 1-2.5s1.6-3.7 2.6-6.2c1.1-2.5 2.3-5.3 3.7-8.3 1.4-3.1 2.7-6.1 4.1-9 1.4-2.9 2.7-5.6 3.9-8.1 1.3-2.4 2.3-4.3 3.3-5.6.6-1 1.2-1.9 1.8-2.8.5-.9 1.1-1.8 1.6-2.5.8-1.3 1.5-2.4 2.2-3.5.7-1.1 1.4-2.1 2.3-2.9.8-.9 1.7-1.6 2.7-2.3s2.2-1.2 3.7-1.7c.9.4 1.6.7 2.3 1.1.6.4 1.2.9 1.7 1.4l.3 1.5c.1.5.4.8.7 1 .3.2.6.3.8.3.9.2 1.7.4 2.4.7.7.2 1.4.4 2.2.5.3.4.6.8.8 1.3.3.4.5.8.8 1.2 1.4 2 2.6 4 3.5 5.9s.9 4 0 6.2l.1 1.2c.4.5.5.9.5 1.4s-.1 1-.2 1.8c-.1.6-.1 1.2-.2 1.8 0 .7.1 1.4.3 2.2l.8.8c1.1.6 2.3.8 3.3.8 1.4 0 2.7-.3 3.9-.9 1.1-.6 2.2-1.3 3.2-1.9.8-.6 1.5-1 2.2-1.4.7-.4 1.3-.6 2-.7 1.5-1.4 2.9-2.6 4.1-3.7l3.9-3.3c2.6-2 5.1-4.2 7.5-6.6 2.4-2.4 4.4-5.3 5.8-8.8.8-.5 1.7-.7 2.7-.7s2 .2 3 .6c1 .4 2 .8 3 1.3l.6.3.6.3c0 .8.3 1.5 1 2.1.4.3.6.5.8.5.1.1.3.1.4.2.6.4 1.1.7 1.5.9.4.3.7.7.9 1.2.6 1.9 1.7 3.4 3.2 4.4-.1.8-.1 1.5.1 2.3.2.7.5 1.5.8 2.2.1.3.2.5.3.8.1.2.2.5.3.9l-2.4-.2.3 2.3c.2 1.2.1 2.5-.3 4s-.8 2.6-1.3 3.5c.1 2.1.2 3.8.2 5s-.1 2.4-.2 3.4c-.1 1.1-.4 2.1-.7 3-.3.9-.7 1.9-1.2 3 .3 5.3-.3 10.2-1.9 14.6-1.5 4.4-3.2 8.6-5 12.4-.2.5-.4.9-.6 1.4s-.4.8-.5 1.3c-.8.2-1.5.5-2.2.7-.6.3-1.3.6-1.8.9-.8.5-1.6.9-2.4 1.2s-1.6.5-2.5.5c-3.4-2.5-5.2-6.7-5.3-12.7s1.2-13.7 3.9-23c.5-.3.7-.9.6-1.6v-1.2l-1.1-.1c-.4 0-.7 0-1 .1-.3.1-.5.4-.6.9-2.3 1.6-4.8 3.3-7.5 5-2.7 1.7-5.5 3.3-8.3 4.7-2.9 1.4-5.8 2.6-8.8 3.6-3 .9-5.9 1.4-8.7 1.4-7.2 0-12.6-3.6-16.2-10.7l-1-1.9-1.1 1.7c-.2.4-.6 1-1.1 2.1-.5 1-1.1 2.2-1.6 3.5s-1 2.7-1.4 4.1c-.4 1.4-.5 2.6-.4 3.7-.9.8-1.7 1.6-2.5 2.6s-1.4 2.1-1.8 3.4c-.1.4-.2.7-.1 1 .1.3.2.7.3 1-.1.5-.2.8-.4 1.1-.2.2-.5.4-.8.6l-1.1 1.1c-.4.4-.7.8-1 1.3-.1.4-.3.9-.3 1.3-.1.5-.1.9-.2 1.2 0 .8-.1 1.3-.3 1.6-.7 1.5-1.3 2.7-1.9 3.6-.5.9-1.1 1.7-1.6 2.2s-1 .8-1.6 1c-.3-.2-.9-.1-1.6-.1zm94.7-11.5 1.4-1.1.1-2.2c1.8-4.3 3.6-8.4 5.5-12.3 1.9-3.9 3.9-8 6-12.1.6-1.3 1.3-2.7 2-4 .7-1.3 1.3-2.7 2-4.1-.1-.3-.1-.6-.1-.9 0-.3.1-.7.2-1.1 1-1.4 1.8-2.7 2.4-3.8.6-1.1 1.2-2.3 1.8-3.5.6-1.4 1.3-2.8 2.1-4.2.8-1.4 1.7-2.8 2.9-4.1l.8-1.1 1.2.1c.3-.1.6-.3.9-.4.3-.1.7-.2 1.2-.2l1.9.3c2.4-1.1 4.5-2.6 6.3-4.6 1.8-2 3.7-4.4 5.5-7.2l1.3-1.8 1.7 1.1c.4.2.9.4 1.7.6.8.2 1.6.5 2.5.7 1.5.4 3 .8 4.4 1.2 1.4.5 2.5 1.1 3.3 1.8l.5.9c.1.8.3 1.5.4 2.1s.2 1.3.4 1.9c.3 1.5.5 2.9.8 4.4.2 1.4.4 3 .4 4.8.4 1.4.7 2.8 1 4.3.3 1.4.6 2.9.9 4.3.4 2 .8 4 1.2 5.8.4 1.9 1 3.6 1.7 5.3.7 0 1.1 0 1.3.1.9-.4 1.9-.6 3-.6l1.4-.1.4 1.3c.1.2.3.4.5.6.2.2.5.4.8.6 1.1.1 2 .3 2.5.7s1 .8 1.3 1.1l.5.5c.2.2.4.3.5.4l1.9.7-1.1 2c-.8 1.5-2 2.9-3.6 4.3s-3.4 2.6-5.4 3.5c.1.5.2.9.3 1.4 0 .4.1.9.3 1.5.3 1.4.5 2.9.7 4.4.2 1.5.2 3.1-.1 4.7-.7 1.8-1.6 3.5-2.5 4.9-1 1.4-2.1 2.7-3.4 3.9-1.3 1.2-2.8 2.1-4.5 2.8-1.7.7-3.4 1.1-5.2 1.2-1-.2-1.7-.5-2.2-.7-.5-.3-.9-.6-1.2-.8-.6-.4-1-.7-1.4-.8l-1.4-.6.4-1.6c.2-.6.2-1.1-.1-1.5-.3-.4-.8-1-1.6-1.7-.3-.2-.5-.4-.8-.7l-.8-.8-2.2-2.4 3.5-.9c2.2-.6 3.6-1.3 4.3-2.2.7-.9 1-2.4.9-4.7-1.8-.4-3.3-.4-4.4-.2-1.1.2-2.3.5-3.4.8-1.7.4-3.3.8-4.8 1.1-1.6.3-3.3.5-5.2.5-1.2 0-2.5-.1-3.9-.3l-1.2-.1-.3-1.2c0-.1-.1-.3-.3-.5l-.5-.5c-.4-.4-.8-1-1.3-1.7s-.6-1.6-.3-2.6c-.5-.8-.8-1.6-.9-2.4-.3.6-.5 1.1-.7 1.6-.2.5-.3 1-.5 1.5l-.4 1.4-1.4.2c-.1.1-.3.4-.4.6-.1.3-.1.5-.1.6l.4 1.2-1.1.9c-.1.2-.3.4-.5.5-.2.1-.4.3-.5.4-.1.8-.3 1.5-.6 2.2-.3.7-.5 1.4-.8 2.1-.4 1.1-.7 2.2-1 3.3-.3 1.1-.5 2.1-.5 3.2l-.4 1.4c-.4.6-.8 1-1.3 1.3s-1.1.5-1.6.7c-.7.3-1.2.6-1.5.8l-.3 1.4-1.6.2c-.9.2-1.6.4-2 .4-.4.1-.8.1-1.3.1l-1.4-.1c-.9-.8-1.6-1.5-2.1-1.9-.5-.5-1.2-.9-1.9-1.2l-.6-.8c-.3-.6-.5-1.1-.5-1.5-.1-.5-.2-.9-.3-1.4-.1-.9-.4-1.5-.6-1.9l-1.3-1.5zm34.3-27.3c-1 1.4-2 2.9-2.9 4.4.5-.1 1-.1 1.5-.1s1 0 1.5-.1c2.5-.1 4.8-.3 7-.5s4.5-.6 7-1.1c-.6-2.6-1.2-5.2-1.9-7.9s-1.4-5.4-2.2-8.2l-.5 1.1c-1.8 1.9-3.5 3.9-5.2 6.1-1.6 2.2-3 4.2-4.1 6.2l-.2.1zm65.3 27.4c-.7.6-1.1 1.3-1.3 2.2-.1.9-.3 1.7-.5 2.6-.2.8-.6 1.6-1.1 2.2s-1.5.9-2.9.8c-.3.4-.3.6-.2.6.2.1.3.4.5.9-1-.1-1.7-.1-2.2.2-.4.3-1 .5-1.6.6-1.7-.5-3-1.4-4.1-2.7-1.1-1.3-2.1-2.7-2.9-4.3-.8-1.5-1.5-3.1-2.2-4.7-.6-1.6-1.2-3-1.9-4.2 0-.3.1-.4.4-.4s.5.1.7.1c-.4-.7-.6-1.5-.8-2.4-.2-.9-.5-1.6-1-2.2 2.1-4.3 4.3-8.9 6.7-13.6 2.4-4.7 4.8-9.5 7.2-14.4l7.2-14.7c2.4-4.9 4.7-9.8 6.9-14.6 2 .7 4 1.5 5.9 2.5 1.9.9 3.6 2.1 5.2 3.3 1.6 1.3 2.9 2.7 4 4.4 1.1 1.6 1.8 3.5 2.2 5.6-.1.4-.3.6-.5.4-.2-.1-.4-.1-.5.2.4.4.6.7.6.9s0 .4-.1.5c-.1.2-.1.4-.1.7s.2.7.5 1.2c-.4-.1-.6 0-.8.2-.1.2-.4.2-.8.1.4 1 .5 1.8.3 2.3-.1.6-.4 1.1-.6 1.5-.3.5-.5.9-.7 1.5-.2.5-.1 1.2.2 2.2-.3 0-.5.1-.6.2-.1.1-.2.2-.3.4-.1.1-.2.3-.3.4s-.3.1-.6.1c.2 1.8.3 3.7.2 5.5-.1 1.9-.1 3.8-.2 5.7-.1 1.9-.1 3.9 0 5.9s.4 4.1.9 6.3c3.1-1.8 5.6-4 7.5-6.8s3.4-5.9 4.5-9.4c1.1-3.4 2-7.1 2.6-11.1.6-3.9 1.2-7.9 1.9-12 .8-.8 1.4-1.7 1.9-2.8s.9-2.3 1.2-3.5c.3-1.2.6-2.4 1-3.6.3-1.2.8-2.3 1.3-3.3 1.3.1 2.4.5 3.3 1.1s1.7 1.3 2.5 2 1.6 1.4 2.5 2.1 1.9 1.1 3.2 1.3c1 1.4 1.9 2.8 2.8 4.1s1.4 2.8 1.7 4.4c-.4.7-.8 1.5-1 2.3s-.4 1.7-.7 2.5c-.3.8-.6 1.6-1 2.3s-1 1.3-1.8 1.8c-.2 2.1-.5 4.1-1 5.9l-1.2 5.4c-.4 1.8-.7 3.6-1 5.5s-.4 4-.3 6.2c-.6 2-1.4 4.1-2.2 6.3-.8 2.1-1.4 4.1-1.7 5.9-1.4 1.1-2.4 2.4-3.2 3.9-.8 1.5-1.6 3.1-2.5 4.6-.4.3-.6.3-.6.2-.1-.2-.4-.3-1-.4.1.6-.1 1-.4 1.2s-.3.7.1 1.5c-1.2.6-2.3 1.3-3.2 2.2-.9.9-2 1.8-3.1 2.5-1.1.8-2.4 1.3-3.9 1.5s-3.4-.1-5.8-.9c-3.5-2.5-6.7-5.4-9.5-8.7-2.8-3.3-5-7.2-6.7-11.7-.7.2-1.3.7-1.6 1.4-.4.7-.7 1.4-1 2.2-.3.8-.6 1.5-.9 2.1s-.7.9-1.3.9c-.1.6-.4 1.2-.8 1.7s-.8 1.1-1.1 1.6c-.4.5-.6 1.1-.8 1.7.1.5.2 1.2.5 1.9zm66 .8c-2.1-1.5-3.8-3.5-5.1-5.8-1.3-2.3-2.4-4.8-3.1-7.4-.8-2.6-1.3-5.3-1.5-8.1-.3-2.8-.3-5.4-.3-7.9.6-1.9 1.4-3.6 2.4-5.2.9-1.6 2-3.1 3.1-4.5s2.3-2.8 3.6-4.1c1.3-1.3 2.5-2.6 3.7-3.9.4 0 .8.1 1.2.3.3-.8.7-1.4 1.3-2 .6-.6 1.2-1.1 1.8-1.5.6-.5 1.3-.9 1.9-1.4s1.2-1 1.6-1.6c1.8-.4 3.4-1 4.8-1.8s2.7-1.6 4-2.5 2.6-1.8 4-2.5c1.4-.8 2.9-1.4 4.7-1.8.6-.7 1.5-1.3 2.4-1.8 1-.5 1.9-.9 2.9-1.4 1-.4 1.9-.9 2.8-1.4s1.6-1.2 2.2-2c.4.6 1 .8 1.8.6s1.5-.4 2.2-.6c.4-.1.8 0 1.1.2.3.2.6.4.8.7.3.2.5.4.6.5.2.1.4-.1.6-.6.6.1.7.3.5.7-.3.4-.4.7-.5.8.7-.1 1.3 0 1.8.4s1.2.6 2.2.8c.4.4.5.6.3.8-.1.2-.3.6-.3 1.1 2.6.8 4.2 2 4.9 3.6.7 1.6.8 3.4.2 5.2-.6 1.8-1.6 3.4-3.2 4.9-1.5 1.5-3.2 2.5-5.1 3-2.2.6-4.3 1.1-6.2 1.7-1.9.6-3.7 1.2-5.5 1.9s-3.4 1.5-4.9 2.5c-1.5.9-2.9 2.1-4 3.3-2 .6-3.8 1.3-5.4 2.3s-3.1 2.1-4.5 3.3-2.7 2.4-4 3.7-2.6 2.6-3.9 3.8c0 1.2-.2 2.1-.6 2.7-.4.6-.9 1.3-1.4 1.9.1 1.3.4 2.5.9 3.4s1 1.9 1.5 2.9c5.7 1.7 11.8 2.7 18.2 3.1 6.4.4 12.8.6 19.1.7.6.8 1.4 1.6 2.2 2.4.8.7 1.6 1.5 2.3 2.3.7.8 1.2 1.7 1.6 2.7s.5 2.2.3 3.6c-1.2 1.2-2.5 2.3-4 3.4-1.4 1.1-2.9 2.2-4.3 3.2-.6.1-1.4.1-2.3 0s-1.8-.1-2.8-.1-1.9.1-2.9.2-1.9.3-2.7.7c-4.5-.1-9.1-.7-13.9-1.6s-9.1-2.1-13.1-3.4c-.8-.9-1.6-1.8-2.5-2.6-1-.9-2.1-1.5-3.5-1.8zm62.2 5.5c-.6-.6-1-1.2-1.2-2-.3-.8-.8-1.4-1.8-1.9-.1-1.1-.3-2.3-.6-3.6-.3-1.4-.5-2.8-.8-4.2-.3-1.4-.4-2.9-.5-4.3s-.1-2.8.2-3.9c.1-.6.4-1.2.7-1.8.3-.6.6-1.1 1-1.6.3-.5.6-1.1.8-1.6.2-.6.2-1.1.1-1.7.4-.1.7-.3.8-.7.1-.4.4-.5 1-.4.5-1.5 1-3 1.6-4.3l1.8-3.9c.6-1.3 1.3-2.5 2-3.8s1.3-2.8 1.9-4.4c-1.2-1.1-2.1-2.3-2.6-3.6s-1-2.6-1.2-3.9c-.3-1.3-.5-2.7-.6-4.1-.1-1.4-.4-2.8-.9-4.2.9-1.3 1.9-2.3 3.1-3.1s2.6-1.5 4-2c1.5-.5 3.1-.9 4.8-1.3 1.7-.3 3.5-.7 5.5-1.1 3.4-1.1 6.5-1.9 9.2-2.5s5.4-1.1 8-1.5 5.3-.7 8.1-1.1c2.8-.3 6-.8 9.7-1.4.1.2.2.3.4.3h.7c.2.5.6.7 1.2.7 0-.2 0-.4-.1-.6 0-.2-.1-.3-.1-.5.1 0 .3 0 .6.1.2.1.5.1.6.2.2.1.3.1.5-.1.1-.1.2-.3.1-.7.9 1.5 2 2.7 3.3 3.6 1.4.9 2.9 1.8 4.5 2.5.1.6.1 1.1.1 1.4 0 .3-.1.5-.2.8-.1.2-.1.5-.1.8s.1.8.2 1.3c-1.1 1.9-2.5 3.4-3.9 4.4-1.5 1.1-3 1.9-4.7 2.4-1.6.6-3.4 1-5.2 1.3-1.8.3-3.7.6-5.6.9-1.9.3-3.8.8-5.8 1.3-1.9.6-3.8 1.4-5.7 2.5-.6-.2-1.1-.3-1.6-.3s-1 .1-1.5.3c-.5.1-1.1.3-1.7.4-.6.1-1.3.1-2.2 0-.6.5-1.2.8-2 1.1-.8.2-1.5.4-2.3.6.4.8.5 1.5.5 2.3s.1 1.4.3 2c3 .3 6.3.3 10-.1 3.7-.3 7.2-.5 10.8-.7.1.4 0 .6-.1.7-.1.1-.2.4-.2.7.6.4 1.3.9 1.8 1.6l1.8 1.8c.6.6 1.2 1.1 1.9 1.5.6.4 1.4.5 2.3.5.4.7.6 1.4.8 2.2.1.8 0 1.6-.3 2.4-1.4.9-2.8 1.8-4.2 2.8-1.4.9-2.8 1.8-4.2 2.6-1.5.8-3.1 1.4-4.8 1.9-1.7.5-3.6.7-5.6.6h-.9c-.3 0-.6-.1-.9-.4-.7.4-1.7.5-2.9.4-1.2-.1-2.2 0-3 .4-1-.4-2.2-.5-3.5-.5s-2.5-.2-3.5-.5c-1.3 1.8-2.5 3.7-3.7 5.7-1.1 2-2.2 4.1-3 6.4 2.9.4 5.4.6 7.3.5s3.8-.2 5.5-.4c1.7-.2 3.5-.4 5.3-.6s4.1-.3 6.7-.2c1.8-.8 3.9-1.4 6.2-1.7 2.3-.3 4.5-.8 6.5-1.4.7.2 1.3.6 1.8 1.2l1.5 1.8c.5.6.9 1.1 1.5 1.5.5.4 1.1.6 1.9.4.4.4.6.8.7 1.3s.2.9.3 1.4.3.8.5 1 .6.3 1.2.3c-1.4 2.7-2.9 4.8-4.6 6.3s-3.6 2.6-5.7 3.4-4.5 1.4-7.1 1.8-5.5.9-8.8 1.4c-.8.1-1.5.1-2-.1s-1.1-.3-1.7-.3c-2 .4-4.4.7-7.2 1.1-2.8.4-5.5.5-8.3.4s-5.5-.4-8.1-1.1c-2.5-.3-4.7-1.4-6.4-3.1z"/><circle cx="146.6" cy="152.5" r="140.5" style="fill-rule:evenodd;clip-rule:evenodd;fill:#fff"/><path d="M149.2 139.5v14.2c.9-2.7 2.3-5.2 4-7.5 4.4-6 11.4-9.8 18.9-10.2 1.5 7.4-.2 15.1-4.9 21-4.3 5.8-10.8 9.4-17.9 10.1v9.3l-3 2.7-.1.1c-.9-.8-1.8-1.7-2.8-2.5v-9.5c-7.1-.7-13.7-4.3-17.9-10.1-4.7-5.9-6.4-13.6-4.9-21 7.5.4 14.4 4.1 18.8 10.2 1.7 2.3 3.1 4.8 4 7.5v-14.2c-7.1-.7-13.7-4.3-17.9-10.1-4.7-5.9-6.4-13.6-4.9-21 7.5.4 14.4 4.1 18.8 10.2 1.7 2.3 3.1 4.8 4 7.5V112c-7.1-.7-13.6-4.4-17.9-10.1-4.6-5.9-6.4-13.6-4.9-21 7.5.4 14.4 4.1 18.8 10.2 1.7 2.3 3.1 4.8 4 7.5v-8.8c-4.9-5.1-7.4-12-6.8-19 .6-7 4.1-13.5 9.8-17.7 5.6 4.2 9.2 10.7 9.8 17.7s-1.9 14-6.8 19v8.8c.9-2.7 2.3-5.2 4-7.5 4.5-6 11.4-9.8 18.9-10.2 1.5 7.4-.2 15.1-4.9 21-4.3 5.8-10.8 9.4-17.9 10.1v14.2c.9-2.7 2.3-5.2 4-7.5 4.4-6 11.3-9.8 18.8-10.2 1.5 7.4-.2 15.1-4.9 21-4.5 5.7-11 9.3-18.2 10z" style="fill:#f57f17"/><path d="M199.8 133.6V144c2.8-7.4 9.7-12.5 17.6-12.9 1.1 4.9 0 10.1-2.9 14.2-8.6 1.7-16.9 4.1-25.1 7.2-3.1-1.3-5.8-3.4-7.9-6-3.6-4.3-4.9-10-3.8-15.4 7.9.4 14.8 5.5 17.6 12.9v-10.4c-5.4-.4-10.4-3.1-13.8-7.4-3.6-4.3-4.9-10-3.8-15.4 7.9.4 14.8 5.5 17.6 12.9v-10.4c-5.4-.4-10.4-3.1-13.8-7.4-3.6-4.3-4.9-10-3.8-15.4 7.9.4 14.8 5.5 17.6 12.9V97c-3.8-3.6-5.7-8.8-5.3-14s3.2-10 7.5-12.9c4.3 3 7.1 7.7 7.5 13 .4 5.2-1.5 10.4-5.3 14v6.5c.7-2 1.8-3.8 3.1-5.5 3.5-4.5 8.8-7.2 14.5-7.5 1.2 5.4-.2 11.1-3.8 15.4-3.4 4.3-8.4 7-13.8 7.4v10.4c.7-2 1.8-3.8 3.1-5.5 3.5-4.5 8.8-7.2 14.5-7.5 1.2 5.4-.2 11.1-3.8 15.4-3.3 4.3-8.3 7-13.7 7.4zm-102.8 0V144c2.8-7.4 9.7-12.5 17.6-12.9 1.2 5.4-.2 11.1-3.8 15.4-2.1 2.6-4.8 4.7-7.9 6-8.2-3.1-16.6-5.5-25.1-7.2-2.9-4.1-4-9.3-2.9-14.2 7.9.4 14.8 5.5 17.6 12.9v-10.4c-5.4-.4-10.4-3.1-13.8-7.4-3.6-4.3-4.9-10-3.8-15.4 5.7.3 11 3 14.5 7.5 1.3 1.6 2.4 3.5 3.1 5.5v-10.4c-5.4-.4-10.4-3.1-13.8-7.4-3.6-4.3-4.9-10-3.8-15.4 5.7.3 11 3 14.5 7.5 1.3 1.6 2.4 3.5 3.1 5.5V97c-3.8-3.6-5.7-8.8-5.3-14 .4-5.2 3.2-10 7.5-12.9 4.3 3 7.1 7.7 7.5 13 .4 5.2-1.5 10.4-5.3 14v6.5c.7-2 1.8-3.8 3.1-5.5 3.5-4.5 8.8-7.2 14.5-7.5 1.2 5.4-.2 11.1-3.8 15.4-3.4 4.3-8.4 7-13.8 7.4v10.4c.7-2 1.8-3.8 3.1-5.5 3.5-4.5 8.8-7.2 14.5-7.5 1.2 5.4-.2 11.1-3.8 15.4-3.2 4.3-8.2 7-13.7 7.4z" style="fill:#f9a825"/><path class="st4" d="m172.8 246.3-.4-.1c-4-1.8-42-19.5-95.2-67.6 0 0 27.2 46.7 80.1 70.6-3.7.4-7.4.6-11.2.6-53.9 0-97.7-43.5-97.7-97.1 0-1.2 0-2.4.1-3.7v-.6c40.4.3 76.2 15.9 98.9 40 15.2 16.1 24.5 36 25.3 57.7l.1.2z"/><path class="st4" d="M243.8 152.6c-.1 41.4-26.4 78.2-65.5 91.7-.4-6.9-1.6-13.7-3.6-20.3 26.5-21.9 40.1-45.1 40.3-45.5-14 12.7-28.6 24.7-43.8 35.9-3.8-8.7-8.8-16.9-14.8-24.2-1.5-1.8-3.1-3.6-4.8-5.4-.5-.6-1-1.1-1.6-1.6 22.8-21.1 56.2-34.6 93.6-34.8v.5c.2 1.2.2 2.4.2 3.7z"/><path class="st5" d="M243.7 148.3c-40.5 7.6-68.4 24.3-87.3 41.9-1.5-1.8-3.1-3.6-4.8-5.4-.5-.6-1-1.1-1.6-1.6 22.8-21.2 56.3-34.6 93.7-34.9zM157.3 249c-3.7.4-7.4.6-11.2.6-53.9 0-97.7-43.5-97.7-97.1 0-1.2 0-2.4.1-3.7.1.1 14.9 88.9 108.8 100.2z"/><path class="st4" d="M73.9 63.6 57.3 41.7c-8.4 6.7-16 14.4-22.7 22.8-9.6 12.1-17.2 25.8-22.3 40.4l26.3 8.2c7.1-19.4 19.3-36.5 35.3-49.5zm-42.1 88.1c0-10.1 1.3-20.2 4-30l-26.4-8.2c-6.5 23.3-7 47.8-1.4 71.3l32.1 9.7c-5.5-13.6-8.4-28.1-8.3-42.8z"/><path class="st5" d="M146.2 265.5c-34.8.1-67.7-15.7-89.4-42.8L62 218c1.3-1.2 1.9-3 1.5-4.8-.4-1.7-1.7-3.1-3.4-3.7L20 197.3c-1.7-.5-3.6-.1-4.9 1.1-1.3 1.2-1.9 3.1-1.4 4.8l9.8 39.6c.4 1.7 1.7 3.1 3.4 3.6s3.5.1 4.8-1.1l4.6-4.2c25.1 30.4 61.7 49 101.1 51.4 39.3 2.4 78-11.5 106.7-38.5l-7.5-32.6c-21.8 27.9-55.2 44.1-90.4 44.1z"/><path d="m285.3 203.8-6.1-1.9c1.4-3.6 2.6-7.3 3.7-11h-.2c3.7-12.7 5.5-25.9 5.5-39.2 0-63.9-42.6-117.8-101.2-135.3l-24.4 22.8c55.4 8 97.9 55.3 97.9 112.5 0 14.3-2.7 28.5-8 41.8l.2.1-6.6-2.1c-1.7-.5-3.6-.1-4.9 1.1-1.3 1.2-1.9 3-1.5 4.8l9.4 40.6c.4 1.8 1.7 3.2 3.4 3.7s3.6.1 4.9-1.2l29.6-28.2c1.2-1.2 1.8-3 1.4-4.7-.2-1.8-1.4-3.2-3.1-3.8z" style="fill-rule:evenodd;clip-rule:evenodd;fill:#00a46e"/><path class="st4" d="M81.1 58.2c14.5-10 31.2-16.5 48.6-19l1.4 6.7c.4 1.8 1.7 3.2 3.4 3.7s3.6.1 4.9-1.1l30.7-28.3c1.3-1.2 1.8-3 1.4-4.8-.4-1.7-1.7-3.1-3.4-3.6L128.8.2c-1.7-.5-3.5-.1-4.8 1.1s-1.9 3-1.5 4.7l1.3 6.2c-21.4 3.4-41.7 11.6-59.4 24l16.7 22z"/><path d="M0 .8h293v293H0V.8z" style="fill:none"/></svg>