<svg xmlns="http://www.w3.org/2000/svg" width="136" height="30" viewBox="0 0 136 30" fill="none"><g id="Group"><g id="Group_2"><path id="Vector" d="M64.8047 8.57227C59.1054 8.69598 54.4511 13.264 54.3157 18.8693C54.1705 24.8172 59.0328 29.6802 65.0417 29.6802C65.0417 29.7326 75.2163 29.6802 75.2163 29.6802V24.9457H65.1627C61.8438 24.9457 59.0667 22.2763 59.1296 19.012C59.1925 15.8477 61.8147 13.3068 65.0466 13.3068C67.8333 13.3068 70.1701 15.2006 70.7991 17.7558H61.9357V18.3935C61.9357 20.6537 63.7983 22.4904 66.1013 22.4904H75.2211C75.5791 21.434 75.7775 20.3063 75.7775 19.131C75.7775 18.6647 75.7436 18.2079 75.6856 17.7558C74.9889 12.5026 70.3685 8.45807 64.8047 8.57702V8.57227Z" fill="url(#paint0_linear_2050_147)"></path><path id="Vector_2" d="M10.7309 8.89148H0.556382V13.626H10.6148C13.9337 13.626 16.7108 16.2954 16.6479 19.5596C16.585 22.7239 13.9628 25.2649 10.7309 25.2649C7.94416 25.2649 5.60736 23.3711 4.97841 20.8158H13.8418V20.1782C13.8418 17.918 11.9791 16.0813 9.6762 16.0813H0.556382C0.198362 17.1377 0 18.2654 0 19.4407C0 19.907 0.0338667 20.3638 0.0919239 20.8158C0.78861 26.069 5.409 30.1136 10.9728 29.9947C16.6721 29.8709 21.3263 25.303 21.4618 19.6976C21.607 13.7497 16.7447 8.88672 10.7357 8.88672L10.7309 8.89148Z" fill="url(#paint1_linear_2050_147)"></path><path id="Vector_3" d="M37.8922 8.92952C35.6425 8.92952 33.5524 9.53859 31.7865 10.5807V1.38281H26.5469V29.6996H31.7865V28.3483C33.5476 29.3903 35.6425 29.9994 37.8922 29.9994C44.1527 29.9994 49.2327 25.3029 49.2327 19.4835C49.2327 13.6641 44.1527 8.92952 37.8922 8.92952ZM37.8922 25.3029C34.6217 25.3029 31.9317 22.8096 31.7865 19.7357V19.2265C31.9268 16.1146 34.6168 13.6212 37.8922 13.6212C41.1676 13.6212 44.0027 16.2526 44.0027 19.4787C44.0027 22.7049 41.2934 25.2982 37.8922 25.2982V25.3029Z" fill="url(#paint2_linear_2050_147)"></path><path id="Vector_4" d="M99.5535 8.92969H94.2461V29.6998H99.5535V8.92969Z" fill="url(#paint3_linear_2050_147)"></path><path id="Vector_5" d="M87.6977 1.38281H82.3516V29.6996H87.6977V1.38281Z" fill="url(#paint4_linear_2050_147)"></path><path id="Vector_6" d="M122.063 11.8046C122.063 11.776 122.063 11.7522 122.063 11.7237C122.053 10.9766 121.618 10.2962 120.931 9.98213C119.436 9.30645 117.757 8.92578 115.981 8.92578C109.721 8.92578 104.641 13.6223 104.641 19.4798C104.641 25.3373 109.721 29.9957 115.981 29.9957C122.242 29.9957 127.322 25.2992 127.322 19.4798C127.322 17.7715 126.891 16.1632 126.122 14.7405C125.769 14.0886 125.082 13.6889 124.332 13.6936C124.22 13.6936 124.114 13.6936 124.012 13.6936C122.953 13.6746 122.087 12.8419 122.067 11.7998L122.063 11.8046ZM115.976 25.3087C112.614 25.3087 109.866 22.6774 109.866 19.4893C109.866 16.3012 112.614 13.6318 115.976 13.6318C119.339 13.6318 122.087 16.2631 122.087 19.4893C122.087 22.7154 119.377 25.3087 115.976 25.3087Z" fill="url(#paint5_linear_2050_147)"></path><path id="Vector_7" d="M96.881 0.96875C95.2022 0.96875 93.8281 2.35818 93.8281 4.04739C93.8281 5.7366 95.2022 7.08796 96.881 7.08796C98.5598 7.08796 99.8999 5.7366 99.8999 4.04739C99.8999 2.35818 98.5646 0.96875 96.881 0.96875Z" fill="url(#paint6_linear_2050_147)"></path></g><path id="Vector_8" d="M135.95 0.041566C135.95 0.041566 130.807 -0.615083 126.801 3.2915C122.795 7.19333 123.908 11.8946 123.908 11.8898C123.912 11.8898 128.61 12.9747 132.621 9.06336C136.627 5.16153 135.959 0.0320494 135.954 0.041566H135.95Z" fill="#34AB8F"></path></g><defs><linearGradient id="paint0_linear_2050_147" x1="-0.00169682" y1="19.1358" x2="127.318" y2="19.1358" gradientUnits="userSpaceOnUse"><stop stop-color="#FF9900"></stop><stop offset="1" stop-color="#FF4D00"></stop></linearGradient><linearGradient id="paint1_linear_2050_147" x1="0" y1="19.4454" x2="127.319" y2="19.4454" gradientUnits="userSpaceOnUse"><stop stop-color="#FF9900"></stop><stop offset="1" stop-color="#FF4D00"></stop></linearGradient><linearGradient id="paint2_linear_2050_147" x1="0.00021434" y1="15.6911" x2="127.32" y2="15.6911" gradientUnits="userSpaceOnUse"><stop stop-color="#FF9900"></stop><stop offset="1" stop-color="#FF4D00"></stop></linearGradient><linearGradient id="paint3_linear_2050_147" x1="-0.000122834" y1="19.3171" x2="127.319" y2="19.3171" gradientUnits="userSpaceOnUse"><stop stop-color="#FF9900"></stop><stop offset="1" stop-color="#FF4D00"></stop></linearGradient><linearGradient id="paint4_linear_2050_147" x1="-0.00260349" y1="15.5436" x2="127.317" y2="15.5436" gradientUnits="userSpaceOnUse"><stop stop-color="#FF9900"></stop><stop offset="1" stop-color="#FF4D00"></stop></linearGradient><linearGradient id="paint5_linear_2050_147" x1="-0.00269207" y1="19.4655" x2="127.317" y2="19.4655" gradientUnits="userSpaceOnUse"><stop stop-color="#FF9900"></stop><stop offset="1" stop-color="#FF4D00"></stop></linearGradient><linearGradient id="paint6_linear_2050_147" x1="0.00280399" y1="4.02835" x2="127.322" y2="4.02835" gradientUnits="userSpaceOnUse"><stop stop-color="#FF9900"></stop><stop offset="1" stop-color="#FF4D00"></stop></linearGradient></defs></svg>