<?xml version="1.0" encoding="UTF-8" standalone="no"?>
<!DOCTYPE svg PUBLIC "-//W3C//DTD SVG 1.1//EN" "http://www.w3.org/Graphics/SVG/1.1/DTD/svg11.dtd">
<svg width="100%" height="100%" viewBox="0 0 3212 627" version="1.1" xmlns="http://www.w3.org/2000/svg" xmlns:xlink="http://www.w3.org/1999/xlink" xml:space="preserve" xmlns:serif="http://www.serif.com/" style="fill-rule:evenodd;clip-rule:evenodd;stroke-linejoin:round;stroke-miterlimit:2;">
    <g id="path6" transform="matrix(1,0,0,1,-1,-1)">
        <path d="M1069.47,628C1066.33,624.912 1066.5,621.424 1067.62,617.832C1075.1,593.792 1082.56,569.748 1090.09,545.722C1099.6,515.348 1109.21,485 1118.71,454.621C1124.86,434.933 1130.88,415.201 1137.01,395.504C1146.51,364.955 1156.08,334.427 1165.58,303.875C1173.44,278.592 1181.19,253.274 1189.06,227.996C1198.53,197.606 1208.1,167.248 1217.58,136.864C1225.57,111.282 1233.34,85.631 1241.54,60.12C1244.41,51.18 1247.42,42.087 1251.9,33.904C1260.21,18.725 1273.92,10.216 1290.76,7.082C1302.31,4.933 1314,3.505 1325.81,1.377C1346.35,1 1366.71,1 1387.73,1.383C1393.15,2.177 1397.96,2.267 1402.65,3.061C1414.51,5.072 1426.62,6.414 1438.09,9.822C1457.53,15.593 1468.96,30.079 1474.96,48.839C1483.01,74.038 1490.53,99.409 1498.33,124.69C1506.7,151.834 1515.17,178.949 1523.54,206.094C1531.53,231.998 1539.41,257.935 1547.4,283.836C1557.22,315.629 1567.15,347.385 1576.95,379.183C1583.46,400.28 1589.74,421.446 1596.26,442.538C1607.42,478.67 1618.71,514.766 1629.94,550.879C1636.49,571.961 1643.08,593.033 1649.56,614.139C1650.94,618.663 1652.99,623.284 1650,628C1570.98,628 1491.96,628 1412.47,627.601C1403.85,601.503 1395.63,575.828 1387.6,550.094C1383.53,537.075 1379.74,523.971 1375.95,510.868C1372.57,499.148 1368.33,487.926 1358.97,479.469C1345.5,467.301 1331.55,455.621 1318.67,442.864C1308.04,432.34 1298.5,420.686 1288.81,409.253C1285.76,405.654 1283.78,401.148 1281.31,397.057C1281.73,396.729 1282.16,396.401 1282.58,396.073C1304.56,414.359 1324.64,435.297 1351,447.251C1346.21,420.921 1341.12,395.401 1337.04,369.722C1334.29,352.428 1332.44,334.946 1331.18,317.476C1330.27,305.012 1330.5,292.404 1331.12,279.904C1331.97,262.661 1333.52,245.445 1335.1,228.248C1335.54,223.425 1337.12,218.707 1338.18,213.942C1338.66,213.963 1339.15,213.984 1339.63,214.005C1340.09,215.471 1340.87,216.921 1340.94,218.405C1341.38,227.831 1341.67,237.265 1342,246.697C1342.34,256.295 1342.62,265.896 1343.03,275.491C1343.26,280.928 1343.57,286.367 1344.08,291.784C1345.31,305.017 1346.6,318.247 1348.03,331.461C1348.88,339.264 1349.88,347.06 1351.2,354.792C1351.41,356.038 1353.55,357.489 1355.02,357.803C1356.06,358.024 1358.03,356.778 1358.63,355.671C1362.9,347.782 1366.66,339.606 1371.1,331.812C1380.44,315.384 1391.16,299.903 1404.86,286.745C1407.97,283.758 1411.76,281.474 1415.24,278.866C1415.57,279.252 1415.91,279.637 1416.25,280.023C1413.82,283.44 1411.37,286.849 1408.95,290.275C1394.55,310.662 1383.45,332.666 1377.01,356.843C1372.3,374.514 1369.87,392.316 1371.78,410.822C1373.63,428.811 1377.9,446.16 1383.26,463.222C1388.21,479.012 1394.2,494.519 1400.54,509.82C1406.83,525.012 1414.09,539.802 1420.99,554.735C1421.61,556.08 1422.76,557.183 1424.26,559.196C1425.27,555.536 1425.82,553.162 1426.59,550.869C1433.02,531.951 1439.69,513.115 1445.89,494.124C1456.69,461.043 1467.83,428.001 1471.96,393.223C1474.09,375.295 1476.08,357.29 1476.74,339.269C1477.15,327.861 1475.67,316.252 1473.84,304.927C1471.59,290.989 1468.64,277.105 1465,263.464C1460.02,244.822 1451.87,227.424 1442.33,210.638C1432.18,192.791 1420.2,176.281 1406.45,161.123C1397.47,151.211 1387.9,141.772 1378.04,132.722C1369.29,124.693 1359.79,117.492 1349.86,109.299C1340.35,123.375 1330.95,136.692 1322.18,150.42C1309,171.086 1298.28,193.061 1288.98,215.734C1280.27,236.976 1272.81,258.673 1268.54,281.231C1265.02,299.824 1262.31,318.611 1260.2,337.418C1259.08,347.319 1259.63,357.466 1260.09,367.471C1260.72,380.946 1261.67,394.424 1263.06,407.842C1265.21,428.641 1270.54,448.762 1276.88,468.651C1284.78,493.437 1295.56,516.935 1308.24,539.579C1323.99,567.701 1342.15,594.059 1365.23,616.804C1368.75,620.272 1371.76,624.255 1375,628L1069.47,628Z" style="fill:rgb(188,204,3);fill-rule:nonzero;"/>
    </g>
    <g id="path8" transform="matrix(1,0,0,1,-1,-1)">
        <path d="M2646.53,1C2650.68,3.396 2652.17,6.473 2652.13,11.166C2651.88,42.66 2652,74.156 2652,105.652C2652,113.142 2650.16,114.999 2642.75,114.999C2547.76,115.001 2452.77,115 2357.78,115.001C2347.91,115.001 2346,116.922 2346,126.868L2346,240.352C2346,249.876 2347.15,251 2356.9,251C2444.39,251 2531.87,250.992 2619.36,251.043C2621.78,251.044 2624.29,251.382 2626.6,252.089C2629.49,252.976 2631.05,254.991 2631.05,258.366C2630.97,293.028 2631.01,327.69 2630.99,362.352C2630.98,367.842 2628.54,369.995 2622.55,369.995C2565.89,370.003 2509.23,370 2452.57,370C2420.41,370 2388.24,369.998 2356.08,370.002C2348.51,370.003 2346,372.495 2346,380.036L2346,503.52C2346,510.713 2348.25,512.999 2355.34,512.999C2450.66,513 2545.98,513 2641.3,513C2649.8,513 2652,515.249 2652,523.919C2652,555.415 2651.98,586.911 2652.02,618.407C2652.03,622.699 2651.31,626.358 2646.14,627.663C2528.65,628 2411.29,628 2293.45,627.598C2292.52,626.811 2292.14,626.25 2291.63,626.07C2285.82,624.024 2279.65,622.7 2274.22,619.91C2256.3,610.69 2242.15,597.176 2231.59,580.02C2222.84,565.817 2217.97,550.458 2217.97,533.6C2218.02,402.148 2218,270.695 2217.99,139.243C2217.99,125.225 2219.09,111.363 2221.88,97.561C2227.36,70.486 2239.22,47.172 2259.93,28.485C2273.27,16.437 2288.84,9.066 2306.14,5.028C2312.72,3.494 2319.38,2.332 2326,1L2646.53,1Z" style="fill:rgb(89,105,115);fill-rule:nonzero;"/>
    </g>
    <g id="path10" transform="matrix(1,0,0,1,-1,-1)">
        <path d="M429,628C311.977,628 194.955,628 77.343,627.64C72.209,625.716 67.515,624.484 63.144,622.531C47.19,615.403 33.704,605.084 22.735,591.346C13.551,579.845 7.296,566.983 3.037,553.016C2.512,551.297 1.686,549.67 1,548C1,547.556 1,547.111 1.323,546.227C1.431,544.859 1.216,543.929 1,543C1,403.644 1,264.288 1.369,124.29C1.492,121.099 1.246,118.549 1,116C1,115.556 1,115.111 1.376,114.195C2.168,112.706 2.784,111.723 2.965,110.664C4.124,103.915 4.602,96.989 6.393,90.419C11.226,72.689 18.668,56.251 30.489,41.81C45.091,23.969 63.051,11.7 85.418,6.001C92.26,4.259 99.138,2.663 106,1C213.689,1 321.379,1 429.658,1.337C433.923,3.188 435.1,5.852 435.081,9.858C434.935,41.687 435.001,73.518 435,105.348C434.999,113.557 433.524,115 425.13,115C329.974,115 234.817,114.998 139.66,115.004C131.441,115.004 129.008,117.393 129.006,125.496C128.993,164.159 128.995,202.821 129.004,241.484C129.006,248.37 131.635,250.999 138.434,250.999C226.091,251 313.749,251 401.406,251C402.573,251 403.746,250.917 404.905,251.015C410.292,251.466 414.228,253.443 414.156,260.389C413.808,293.548 414,326.713 414,359.877C414,368.6 412.632,370 404.101,370C315.777,370 227.453,369.999 139.129,370.001C131.522,370.001 129.003,372.477 129.002,379.966C128.998,420.795 128.999,461.624 129.001,502.453C129.001,510.686 131.286,513 139.403,513C234.559,513 329.716,512.999 424.873,513.001C432.489,513.001 435,515.443 435,522.822C435,554.486 434.859,586.15 435.141,617.811C435.187,623.01 433.55,626.106 429,628Z" style="fill:rgb(188,204,3);fill-rule:nonzero;"/>
    </g>
    <g id="path18" transform="matrix(1,0,0,1,-1,-1)">
        <path d="M2957.47,628C2953.16,627.009 2949.38,625.65 2945.48,625.088C2923.81,621.966 2903.16,615.183 2883.74,605.564C2872.15,599.828 2861.49,591.797 2851.37,583.62C2828.19,564.901 2812.2,540.477 2799.56,513.881C2790.99,495.828 2784.45,477.016 2783.98,456.639C2783.76,447.038 2783.05,437.441 2783.04,427.842C2782.97,348.361 2782.81,268.879 2783.13,189.399C2783.22,168.4 2787.12,147.838 2792.6,127.461C2798.58,105.224 2810.32,86.661 2824.98,69.415C2840.99,50.582 2859.45,34.951 2881.29,23.204C2899.56,13.38 2918.93,7.065 2939.17,3.055C2941.36,2.622 2943.54,2.18 2945.86,1.371C3033.35,1 3120.71,1 3208.62,1.323C3210.46,2.43 3211.73,3.215 3213,4C3213,39.354 3213,74.708 3212.66,110.639C3209.81,114.284 3206.58,115.07 3202.66,115.065C3130.2,114.976 3057.74,114.915 2985.28,115.052C2963.7,115.093 2946.43,125.243 2933.51,141.489C2917.71,161.349 2911.46,185.445 2911.24,210.276C2910.58,287.231 2910.95,364.195 2911.09,441.155C2911.1,447.344 2911.72,453.684 2913.15,459.694C2921.2,493.584 2946.21,512.673 2980.46,512.87C3053.92,513.294 3127.38,513.027 3200.84,512.935C3205.5,512.93 3209.58,513.749 3213,517C3213,552.354 3213,587.708 3212.63,623.543C3210.18,625.349 3208.09,626.675 3206,628L2957.47,628Z" style="fill:rgb(89,105,115);fill-rule:nonzero;"/>
    </g>
    <g id="path22" transform="matrix(1,0,0,1,-1,-1)">
        <path d="M1821.47,628C1816.3,626.107 1814.92,622.62 1814.92,617.635C1815.02,454.139 1815,290.643 1815,127.146C1815,116.884 1813.13,115 1802.96,115C1757.12,115 1711.29,115.001 1665.46,114.999C1657.29,114.999 1655,112.669 1655,104.341C1655,73.175 1654.89,42.008 1655.16,10.844C1655.19,7.779 1657.52,4.734 1658.89,1.34C1805.02,1 1951.04,1 2097.53,1C2099.33,3.746 2101.8,6.484 2101.83,9.241C2102.1,41.739 2102.01,74.239 2101.99,106.739C2101.99,112.356 2099.24,114.996 2093.44,114.996C2046.94,115.003 2000.44,115 1953.94,115C1944.82,115 1942,117.829 1942,127.053C1942,290.886 1941.99,454.719 1942.07,618.552C1942.07,623.056 1941.21,626.374 1936.14,627.663C1897.98,628 1859.96,628 1821.47,628Z" style="fill:rgb(89,105,115);fill-rule:nonzero;"/>
    </g>
    <g id="path24" transform="matrix(1,0,0,1,-1,-1)">
        <path d="M705.469,628C699.824,627.001 694.686,625.704 689.467,625.052C661.737,621.591 635.456,613.967 613.184,596.436C599.796,585.898 590.543,571.764 584.125,556.036C576.998,538.567 572.976,520.301 572.008,501.419C571.602,493.496 571.045,485.567 571.042,477.64C570.985,321.908 570.999,166.176 571.005,10.444C571.005,7.013 570.474,3.323 574.866,1.345C614.354,1 653.708,1 693.531,1C697.445,3.153 698.065,6.344 698.063,10.21C697.989,168.022 697.965,325.833 698.085,483.645C698.092,493.366 700.178,503.121 709.808,507.952C715.443,510.779 722.182,512.766 728.434,512.791C807.589,513.109 886.745,513.071 965.9,512.899C974.593,512.88 978.028,516.148 978.016,524.844C977.975,555.507 977.991,586.169 978.009,616.832C978.012,621.815 976.838,625.965 971.131,627.662C882.646,628 794.292,628 705.469,628Z" style="fill:rgb(188,204,3);fill-rule:nonzero;"/>
    </g>
</svg>
